<svg width="296" height="301" viewBox="0 0 296 301" fill="none" xmlns="http://www.w3.org/2000/svg">
<g clip-path="url(#clip0_111_1828)">
<path d="M170.059 150.776L209.053 93.8857L151.257 131.74L94.1052 92.92L132.138 150.457L93.144 207.344L150.94 169.49L208.092 208.31L170.059 150.776Z" fill="#656669"/>
<path d="M139.661 160.438L208.104 206.926L94.1169 91.5362L139.661 160.438Z" fill="#13A090"/>
<path d="M94.1169 91.5362L208.104 206.926L162.559 138.024L94.1169 91.5362Z" fill="#038072"/>
<path d="M139.851 137.833L93.1557 205.96L209.065 92.5019L139.851 137.833Z" fill="#13A090"/>
<path d="M209.065 92.5019L93.1557 205.96L162.369 160.629L209.065 92.5019Z" fill="#038072"/>
<path d="M168.548 149.379C168.527 152.822 167.483 156.182 165.548 159.033C163.613 161.883 160.873 164.097 157.676 165.394C154.479 166.69 150.969 167.011 147.589 166.316C144.209 165.62 141.112 163.94 138.69 161.488C136.268 159.035 134.629 155.921 133.982 152.539C133.334 149.157 133.707 145.659 135.053 142.489C136.399 139.318 138.657 136.617 141.542 134.728C144.427 132.839 147.809 131.847 151.26 131.876C153.547 131.893 155.808 132.359 157.915 133.247C160.021 134.136 161.932 135.43 163.537 137.055C165.142 138.68 166.411 140.605 167.271 142.72C168.131 144.835 168.564 147.097 168.548 149.379Z" fill="#13A090"/>
<path d="M151.22 191.61C127.367 191.409 108.124 171.929 108.323 148.185C108.523 124.441 128.08 105.286 151.944 105.487C175.807 105.687 195.04 125.167 194.841 148.912C194.641 172.656 175.063 191.81 151.22 191.61ZM151.938 106.116C128.432 105.918 109.15 124.792 108.953 148.19C108.757 171.589 127.708 190.787 151.225 190.984C174.742 191.182 194.014 172.305 194.21 148.907C194.407 125.508 175.431 106.313 151.938 106.116Z" fill="#13A090"/>
<path d="M151.158 198.938C123.246 198.703 100.728 175.907 100.961 148.123C101.195 120.339 124.082 97.9246 152.005 98.1591C179.928 98.3937 202.436 121.19 202.202 148.974C201.969 176.758 179.06 199.172 151.158 198.938ZM151.98 101.094C125.714 100.874 104.141 121.978 103.921 148.138C103.701 174.297 124.892 195.771 151.183 195.992C177.474 196.213 199.023 175.111 199.243 148.949C199.463 122.786 178.247 101.326 151.98 101.105L151.98 101.094Z" fill="#13A090"/>
<path d="M150.588 266.841C123.497 266.582 97.3345 256.959 76.5561 239.612C55.7776 222.265 41.6691 198.267 36.634 171.706C31.5988 145.145 35.9485 117.664 48.942 93.945C61.9355 70.2256 82.769 51.735 107.894 41.6231C133.018 31.5113 160.88 30.4036 186.731 38.4889C212.583 46.5742 234.827 63.3523 249.672 85.965C264.517 108.578 271.046 135.626 268.147 162.502C265.248 189.379 253.099 214.421 233.771 233.362C222.807 244.144 209.812 252.654 195.535 258.4C181.258 264.146 165.982 267.015 150.588 266.841ZM152.531 35.5116C125.928 35.3204 100.081 44.3379 79.3942 61.0278C58.7071 77.7177 44.459 101.048 39.0772 127.044C33.6954 153.04 37.5127 180.094 49.8788 203.598C62.2449 227.101 82.3949 245.6 106.896 255.944C131.398 266.288 158.736 267.836 184.252 260.326C209.769 252.815 231.886 236.71 246.837 214.754C261.788 192.797 268.647 166.348 266.247 139.911C263.846 113.474 252.334 88.685 233.671 69.7663C223.083 58.9933 210.462 50.4192 196.535 44.5386C182.609 38.6581 167.653 35.5877 152.532 35.5046L152.531 35.5116Z" fill="#838BA5"/>
<path d="M153.543 20.6294L151.746 20.6143L151.63 34.4521L153.426 34.4672L153.543 20.6294Z" fill="#13A090"/>
<path d="M151.483 265.8L149.686 265.785L149.57 279.623L151.367 279.638L151.483 265.8Z" fill="#13A090"/>
<path d="M131.626 27.6632L130.245 27.8948L131.64 36.176L133.021 35.9444L131.626 27.6632Z" fill="#13A090"/>
<path d="M171.463 264.092L170.082 264.324L171.476 272.605L172.858 272.373L171.463 264.092Z" fill="#13A090"/>
<path d="M112.068 41.3327L109.249 33.4216L110.569 32.9539L113.389 40.8685L112.068 41.3327Z" fill="#13A090"/>
<path d="M192.543 267.298L189.724 259.387L191.045 258.919L193.864 266.834L192.543 267.298Z" fill="#13A090"/>
<path d="M93.69 49.8101L89.5344 42.5063L90.752 41.8176L94.9076 49.1249L93.69 49.8101Z" fill="#13A090"/>
<path d="M212.361 258.434L208.205 251.131L209.423 250.442L213.578 257.749L212.361 258.434Z" fill="#13A090"/>
<path d="M77.0722 61.3356L71.7049 54.8603L72.7841 53.9713L78.1514 60.45L77.0722 61.3356Z" fill="#13A090"/>
<path d="M230.329 246.281L224.961 239.806L226.044 238.917L231.408 245.395L230.329 246.281Z" fill="#13A090"/>
<path d="M62.7153 75.5605L56.2991 70.1109L57.2082 69.0491L63.6243 74.4988L62.7153 75.5605Z" fill="#13A090"/>
<path d="M245.905 231.206L239.488 225.753L240.397 224.695L246.814 230.145L245.905 231.206Z" fill="#13A090"/>
<path d="M51.0575 92.0481L43.7872 87.79L44.4978 86.5868L51.7681 90.845L51.0575 92.0481Z" fill="#13A090"/>
<path d="M258.615 213.665L251.345 209.407L252.055 208.204L259.326 212.466L258.615 213.665Z" fill="#13A090"/>
<path d="M42.4563 110.302L34.5515 107.363L35.0423 106.056L42.9436 108.995L42.4563 110.302Z" fill="#13A090"/>
<path d="M268.07 194.196L260.169 191.257L260.66 189.95L268.561 192.889L268.07 194.196Z" fill="#13A090"/>
<path d="M29.128 126.877L28.8745 128.248L37.1681 129.775L37.4216 128.404L29.128 126.877Z" fill="#13A090"/>
<path d="M265.924 170.467L265.67 171.839L273.964 173.365L274.217 171.994L265.924 170.467Z" fill="#13A090"/>
<path d="M35.3671 148.254L21.467 148.137L21.452 149.926L35.3521 150.043L35.3671 148.254Z" fill="#13A090"/>
<path d="M281.664 150.323L267.764 150.206L267.749 151.995L281.649 152.112L281.664 150.323Z" fill="#13A090"/>
<path d="M36.8455 168.555L28.5286 169.949L28.7602 171.325L37.077 169.93L36.8455 168.555Z" fill="#13A090"/>
<path d="M274.363 128.911L266.046 130.305L266.278 131.68L274.595 130.286L274.363 128.911Z" fill="#13A090"/>
<path d="M34.3219 192.232L33.8531 190.917L41.8026 188.112L42.2679 189.426L34.3219 192.232Z" fill="#13A090"/>
<path d="M261.314 112.14L260.845 110.826L268.795 108.02L269.263 109.335L261.314 112.14Z" fill="#13A090"/>
<path d="M43.449 211.858L42.7587 210.643L50.096 206.507L50.7862 207.722L43.449 211.858Z" fill="#13A090"/>
<path d="M253.017 93.7448L252.327 92.5298L259.667 88.3944L260.358 89.6059L253.017 93.7448Z" fill="#13A090"/>
<path d="M55.8594 229.606L54.9683 228.533L61.4752 223.188L62.3662 224.265L55.8594 229.606Z" fill="#13A090"/>
<path d="M241.641 77.0602L240.747 75.9868L247.253 70.6422L248.145 71.7191L241.641 77.0602Z" fill="#13A090"/>
<path d="M71.1798 244.944L70.1157 244.037L75.591 237.653L76.6552 238.556L71.1798 244.944Z" fill="#13A090"/>
<path d="M227.525 62.5995L226.458 61.6925L231.933 55.3083L233.001 56.2119L227.525 62.5995Z" fill="#13A090"/>
<path d="M88.9444 257.398L87.7351 256.689L92.0128 249.452L93.2221 250.161L88.9444 257.398Z" fill="#13A090"/>
<path d="M211.1 50.7964L209.894 50.0874L214.172 42.8544L215.378 43.56L211.1 50.7964Z" fill="#13A090"/>
<path d="M108.607 266.593L107.294 266.103L110.246 258.237L111.559 258.727L108.607 266.593Z" fill="#13A090"/>
<path d="M192.867 42.0115L191.558 41.5217L194.506 33.659L195.819 34.1453L192.867 42.0115Z" fill="#13A090"/>
<path d="M129.723 263.723L128.197 271.981L129.574 272.235L131.101 263.977L129.723 263.723Z" fill="#13A090"/>
<path d="M173.521 27.9931L171.995 36.2511L173.372 36.5047L174.899 28.2467L173.521 27.9931Z" fill="#13A090"/>
<path d="M148.384 30.6091L147.785 30.622L147.875 34.7709L148.474 34.758L148.384 30.6091Z" fill="#13A090"/>
<path d="M154.98 266.461L154.381 266.477L154.492 270.624L155.091 270.608L154.98 266.461Z" fill="#13A090"/>
<path d="M144.9 29.9439L144.301 29.9807L144.557 34.131L145.156 34.0942L144.9 29.9439Z" fill="#13A090"/>
<path d="M159.053 266.276L158.455 266.313L158.711 270.453L159.309 270.416L159.053 266.276Z" fill="#13A090"/>
<path d="M140.206 30.0952L139.61 30.1527L140.011 34.2815L140.607 34.2239L140.206 30.0952Z" fill="#13A090"/>
<path d="M163.09 265.968L162.494 266.026L162.895 270.155L163.491 270.097L163.09 265.968Z" fill="#13A090"/>
<path d="M136.002 30.5783L135.409 30.6566L135.953 34.7688L136.547 34.6906L136.002 30.5783Z" fill="#13A090"/>
<path d="M167.162 265.484L166.568 265.563L167.114 269.678L167.708 269.6L167.162 265.484Z" fill="#13A090"/>
<path d="M127.908 36.1294L127.077 32.0617L127.663 31.9443L128.494 36.0085L127.908 36.1294Z" fill="#13A090"/>
<path d="M175.21 264.118L174.624 264.237L175.456 268.301L176.043 268.182L175.21 264.118Z" fill="#13A090"/>
<path d="M123.925 37.0185L122.95 32.9845L123.533 32.8461L124.508 36.8802L123.925 37.0185Z" fill="#13A090"/>
<path d="M179.576 267.406L178.602 263.372L179.188 263.233L180.162 267.268L179.576 267.406Z" fill="#13A090"/>
<path d="M119.976 38.0477L118.861 34.051L119.44 33.8916L120.556 37.8884L119.976 38.0477Z" fill="#13A090"/>
<path d="M183.672 266.364L182.557 262.364L183.133 262.204L184.252 266.205L183.672 266.364Z" fill="#13A090"/>
<path d="M116.065 39.2135L114.813 35.2576L115.385 35.0772L116.637 39.0331L116.065 39.2135Z" fill="#13A090"/>
<path d="M187.728 265.175L186.472 261.219L187.044 261.038L188.3 264.998L187.728 265.175Z" fill="#13A090"/>
<path d="M108.382 41.9482L106.852 38.0877L107.411 37.8688L108.937 41.7292L108.382 41.9482Z" fill="#13A090"/>
<path d="M195.702 262.387L194.172 258.526L194.731 258.307L196.26 262.168L195.702 262.387Z" fill="#13A090"/>
<path d="M104.614 43.5136L102.951 39.7079L103.503 39.4714L105.166 43.2736L104.614 43.5136Z" fill="#13A090"/>
<path d="M199.61 260.784L197.946 256.978L198.498 256.742L200.162 260.544L199.61 260.784Z" fill="#13A090"/>
<path d="M100.905 45.2088L99.1118 41.465L99.6498 41.2074L101.447 44.9513L100.905 45.2088Z" fill="#13A090"/>
<path d="M203.463 259.048L201.666 255.301L202.204 255.043L204.001 258.791L203.463 259.048Z" fill="#13A090"/>
<path d="M97.2578 47.0303L95.3343 43.3518L95.8655 43.0767L97.7889 46.7552L97.2578 47.0303Z" fill="#13A090"/>
<path d="M207.247 257.175L205.32 253.497L205.855 253.222L207.779 256.9L207.247 257.175Z" fill="#13A090"/>
<path d="M90.1666 51.0525L87.9863 47.5151L88.4968 47.2013L90.6771 50.7388L90.1666 51.0525Z" fill="#13A090"/>
<path d="M214.613 253.051L212.436 249.513L212.946 249.2L215.127 252.737L214.613 253.051Z" fill="#13A090"/>
<path d="M86.7299 53.2462L84.4298 49.7847L84.9299 49.4569L87.23 52.915L86.7299 53.2462Z" fill="#13A090"/>
<path d="M218.183 250.795L215.883 247.337L216.383 247.009L218.683 250.467L218.183 250.795Z" fill="#13A090"/>
<path d="M83.3727 55.5559L80.9528 52.1808L81.4391 51.8319L83.8624 55.2106L83.3727 55.5559Z" fill="#13A090"/>
<path d="M221.674 248.42L219.25 245.045L219.737 244.696L222.16 248.075L221.674 248.42Z" fill="#13A090"/>
<path d="M80.0985 57.9817L77.5623 54.6929L78.0382 54.33L80.5744 57.6188L80.0985 57.9817Z" fill="#13A090"/>
<path d="M225.075 245.926L222.538 242.633L223.014 242.27L225.55 245.563L225.075 245.926Z" fill="#13A090"/>
<path d="M73.8171 63.1674L71.0552 60.0619L71.5034 59.6638L74.2652 62.7728L73.8171 63.1674Z" fill="#13A090"/>
<path d="M231.609 240.588L228.847 237.479L229.296 237.085L232.057 240.194L231.609 240.588Z" fill="#13A090"/>
<path d="M70.817 65.9204L67.9458 62.9119L68.38 62.5032L71.2512 65.5117L70.817 65.9204Z" fill="#13A090"/>
<path d="M234.733 237.752L231.861 234.744L232.296 234.332L235.167 237.34L234.733 237.752Z" fill="#13A090"/>
<path d="M67.9139 68.7791L64.9402 65.8711L65.3606 65.4448L68.3342 68.3528L67.9139 68.7791Z" fill="#13A090"/>
<path d="M237.752 234.811L234.778 231.903L235.199 231.476L238.172 234.384L237.752 234.811Z" fill="#13A090"/>
<path d="M65.1116 71.733L62.039 68.929L62.4455 68.4921L65.5181 71.2926L65.1116 71.733Z" fill="#13A090"/>
<path d="M240.667 231.763L237.595 228.963L238.001 228.519L241.074 231.323L240.667 231.763Z" fill="#13A090"/>
<path d="M59.8304 77.9266L56.5668 75.3446L56.9385 74.876L60.2021 77.458L59.8304 77.9266Z" fill="#13A090"/>
<path d="M246.174 225.376L242.911 222.794L243.282 222.329L246.546 224.911L246.174 225.376Z" fill="#13A090"/>
<path d="M57.3551 81.1558L54.003 78.6884L54.3608 78.2091L57.7094 80.6765L57.3551 81.1558Z" fill="#13A090"/>
<path d="M248.752 222.043L245.403 219.575L245.757 219.096L249.11 221.564L248.752 222.043Z" fill="#13A090"/>
<path d="M54.9948 84.4699L51.5576 82.1206L51.898 81.6307L55.3316 83.98L54.9948 84.4699Z" fill="#13A090"/>
<path d="M251.215 218.625L247.778 216.276L248.118 215.782L251.555 218.131L251.215 218.625Z" fill="#13A090"/>
<path d="M52.7492 87.8653L49.2374 85.6377L49.5569 85.1336L53.0721 87.3613L52.7492 87.8653Z" fill="#13A090"/>
<path d="M253.556 215.122L250.041 212.891L250.364 212.39L253.879 214.618L253.556 215.122Z" fill="#13A090"/>
<path d="M48.6309 94.8759L44.9665 92.8986L45.2511 92.3733L48.9155 94.3506L48.6309 94.8759Z" fill="#13A090"/>
<path d="M257.862 207.879L254.197 205.901L254.485 205.376L258.146 207.353L257.862 207.879Z" fill="#13A090"/>
<path d="M46.7548 98.4876L43.0263 96.6356L43.2934 96.1031L47.022 97.9517L46.7548 98.4876Z" fill="#13A090"/>
<path d="M259.823 204.152L256.091 202.3L256.358 201.768L260.09 203.617L259.823 204.152Z" fill="#13A090"/>
<path d="M45.0078 102.16L41.2151 100.436L41.4649 99.8934L45.2575 101.617L45.0078 102.16Z" fill="#13A090"/>
<path d="M261.648 200.359L257.855 198.639L258.105 198.096L261.897 199.816L261.648 200.359Z" fill="#13A090"/>
<path d="M43.3935 105.889L39.5437 104.302L39.7725 103.751L43.6223 105.339L43.3935 105.889Z" fill="#13A090"/>
<path d="M263.34 196.504L259.49 194.917L259.719 194.363L263.573 195.951L263.34 196.504Z" fill="#13A090"/>
<path d="M40.5555 113.508L36.6053 112.192L36.7957 111.624L40.7459 112.94L40.5555 113.508Z" fill="#13A090"/>
<path d="M266.321 188.628L262.367 187.312L262.557 186.748L266.511 188.06L266.321 188.628Z" fill="#13A090"/>
<path d="M39.3391 117.384L35.3458 116.207L35.5152 115.636L39.5121 116.812L39.3391 117.384Z" fill="#13A090"/>
<path d="M263.757 182.846L263.588 183.42L267.585 184.597L267.755 184.024L263.757 182.846Z" fill="#13A090"/>
<path d="M34.3738 119.675L34.2244 120.254L38.2603 121.292L38.4097 120.713L34.3738 119.675Z" fill="#13A090"/>
<path d="M268.738 180.565L264.702 179.528L264.85 178.949L268.887 179.986L268.738 180.565Z" fill="#13A090"/>
<path d="M33.381 123.784L33.2517 124.367L37.3211 125.265L37.4504 124.682L33.381 123.784Z" fill="#13A090"/>
<path d="M269.732 176.474L265.663 175.577L265.791 174.994L269.863 175.892L269.732 176.474Z" fill="#13A090"/>
<path d="M31.8196 132.032L31.7314 132.623L35.8538 133.235L35.9419 132.644L31.8196 132.032Z" fill="#13A090"/>
<path d="M267.543 167.334L267.454 167.925L271.575 168.542L271.664 167.951L267.543 167.334Z" fill="#13A090"/>
<path d="M31.2636 136.218L31.196 136.812L35.3372 137.282L35.4047 136.688L31.2636 136.218Z" fill="#13A090"/>
<path d="M267.78 162.976L267.712 163.569L271.853 164.039L271.921 163.445L267.78 162.976Z" fill="#13A090"/>
<path d="M31.3289 140.267L31.282 140.864L35.4471 141.191L35.494 140.593L31.3289 140.267Z" fill="#13A090"/>
<path d="M268.138 158.914L268.091 159.51L272.246 159.833L272.293 159.237L268.138 158.914Z" fill="#13A090"/>
<path d="M30.5824 144.608L30.5564 145.205L34.7202 145.386L34.7462 144.789L30.5824 144.608Z" fill="#13A090"/>
<path d="M268.416 154.883L268.39 155.48L272.554 155.66L272.58 155.063L268.416 154.883Z" fill="#13A090"/>
<path d="M33.7243 153.426L29.5557 153.516L29.5686 154.114L33.7372 154.024L33.7243 153.426Z" fill="#13A090"/>
<path d="M272.608 146.637L268.442 146.747L268.458 147.344L272.624 147.234L272.608 146.637Z" fill="#13A090"/>
<path d="M34.8317 156.963L30.6719 157.218L30.7086 157.814L34.8685 157.559L34.8317 156.963Z" fill="#13A090"/>
<path d="M272.417 142.422L268.257 142.677L268.294 143.274L272.454 143.019L272.417 142.422Z" fill="#13A090"/>
<path d="M35.1478 161.012L30.9995 161.412L31.0572 162.007L35.2056 161.607L35.1478 161.012Z" fill="#13A090"/>
<path d="M272.077 138.219L267.928 138.622L267.986 139.217L272.135 138.814L272.077 138.219Z" fill="#13A090"/>
<path d="M35.5887 165.058L31.457 165.604L31.5356 166.196L35.6673 165.651L35.5887 165.058Z" fill="#13A090"/>
<path d="M271.576 134.062L267.444 134.608L267.523 135.2L271.654 134.655L271.576 134.062Z" fill="#13A090"/>
<path d="M32.9544 174.485L32.8367 173.9L36.9205 173.072L37.0382 173.656L32.9544 174.485Z" fill="#13A090"/>
<path d="M266.196 127.18L266.075 126.592L270.158 125.767L270.279 126.352L266.196 127.18Z" fill="#13A090"/>
<path d="M37.7956 177.04L33.7439 178.014L33.8842 178.595L37.9359 177.62L37.7956 177.04Z" fill="#13A090"/>
<path d="M265.319 123.21L265.18 122.629L269.233 121.66L269.372 122.241L265.319 123.21Z" fill="#13A090"/>
<path d="M34.9522 182.662L34.7924 182.087L38.8085 180.978L38.9683 181.553L34.9522 182.662Z" fill="#13A090"/>
<path d="M264.308 119.274L264.148 118.699L268.164 117.59L268.324 118.165L264.308 119.274Z" fill="#13A090"/>
<path d="M36.1652 186.694L35.9844 186.123L39.9596 184.878L40.1369 185.445L36.1652 186.694Z" fill="#13A090"/>
<path d="M263.157 115.374L262.976 114.807L266.951 113.558L267.129 114.129L263.157 115.374Z" fill="#13A090"/>
<path d="M39.0089 194.616L38.7894 194.062L42.6654 192.54L42.8849 193.097L39.0089 194.616Z" fill="#13A090"/>
<path d="M260.447 107.712L260.228 107.155L264.107 105.632L264.327 106.19L260.447 107.712Z" fill="#13A090"/>
<path d="M40.6366 198.498L40.396 197.955L44.2205 196.299L44.4576 196.843L40.6366 198.498Z" fill="#13A090"/>
<path d="M258.896 103.953L258.655 103.406L262.476 101.75L262.717 102.297L258.896 103.953Z" fill="#13A090"/>
<path d="M42.4011 202.322L42.1429 201.786L45.902 200L46.1602 200.537L42.4011 202.322Z" fill="#13A090"/>
<path d="M257.211 100.252L256.952 99.7153L260.715 97.9262L260.973 98.4665L257.211 100.252Z" fill="#13A090"/>
<path d="M44.2995 206.085L44.0203 205.555L47.7174 203.639L47.9931 204.169L44.2995 206.085Z" fill="#13A090"/>
<path d="M255.399 96.613L255.12 96.0829L258.817 94.1675L259.093 94.6975L255.399 96.613Z" fill="#13A090"/>
<path d="M48.4795 213.396L48.1685 212.886L51.7207 210.718L52.0351 211.227L48.4795 213.396Z" fill="#13A090"/>
<path d="M251.396 89.5306L251.081 89.0247L254.633 86.853L254.948 87.3623L251.396 89.5306Z" fill="#13A090"/>
<path d="M50.7612 216.937L50.4327 216.442L53.9053 214.151L54.2373 214.65L50.7612 216.937Z" fill="#13A090"/>
<path d="M249.208 86.1015L248.876 85.6024L252.352 83.3112L252.684 83.8102L249.208 86.1015Z" fill="#13A090"/>
<path d="M53.1663 220.4L52.8167 219.915L56.2097 217.504L56.5594 217.989L53.1663 220.4Z" fill="#13A090"/>
<path d="M246.903 82.7482L246.557 82.263L249.95 79.8523L250.296 80.3374L246.903 82.7482Z" fill="#13A090"/>
<path d="M55.6913 223.776L55.324 223.301L58.6305 220.774L58.9943 221.249L55.6913 223.776Z" fill="#13A090"/>
<path d="M244.482 79.4744L244.118 79.003L247.425 76.4762L247.789 76.951L244.482 79.4744Z" fill="#13A090"/>
<path d="M61.0866 230.255L60.6876 229.808L63.8069 227.056L64.2059 227.503L61.0866 230.255Z" fill="#13A090"/>
<path d="M239.306 73.1929L238.907 72.7493L242.03 69.9973L242.425 70.4444L239.306 73.1929Z" fill="#13A090"/>
<path d="M63.95 233.347L63.5368 232.914L66.5589 230.06L66.9721 230.489L63.95 233.347Z" fill="#13A090"/>
<path d="M236.554 70.1924L236.141 69.7591L239.166 66.9014L239.579 67.3347L236.554 70.1924Z" fill="#13A090"/>
<path d="M66.9231 236.339L66.4923 235.923L69.4136 232.963L69.8409 233.379L66.9231 236.339Z" fill="#13A090"/>
<path d="M233.699 67.2888L233.272 66.8693L236.193 63.9095L236.62 64.3289L233.699 67.2888Z" fill="#13A090"/>
<path d="M69.9949 239.227L69.5535 238.825L72.3671 235.766L72.812 236.168L69.9949 239.227Z" fill="#13A090"/>
<path d="M230.746 64.4857L230.304 64.0801L233.118 61.0215L233.559 61.4271L230.746 64.4857Z" fill="#13A090"/>
<path d="M76.4391 244.673L75.9694 244.303L78.5639 241.057L79.0336 241.428L76.4391 244.673Z" fill="#13A090"/>
<path d="M224.552 59.1917L224.083 58.8209L226.677 55.5752L227.143 55.946L224.552 59.1917Z" fill="#13A090"/>
<path d="M79.8009 247.228L79.317 246.871L81.7967 243.537L82.2771 243.891L79.8009 247.228Z" fill="#13A090"/>
<path d="M221.316 56.7148L220.836 56.3578L223.315 53.0238L223.796 53.3773L221.316 56.7148Z" fill="#13A090"/>
<path d="M83.2478 249.662L82.7533 249.322L85.1112 245.903L85.6057 246.243L83.2478 249.662Z" fill="#13A090"/>
<path d="M218.001 54.3455L217.507 54.0094L219.865 50.587L220.359 50.9266L218.001 54.3455Z" fill="#13A090"/>
<path d="M86.7801 251.973L86.2749 251.654L88.5108 248.154L89.016 248.476L86.7801 251.973Z" fill="#13A090"/>
<path d="M214.602 52.0944L214.097 51.7756L216.333 48.2753L216.841 48.5976L214.602 52.0944Z" fill="#13A090"/>
<path d="M94.0748 256.225L93.5483 255.941L95.5333 252.291L96.0633 252.575L94.0748 256.225Z" fill="#13A090"/>
<path d="M207.579 47.9572L207.053 47.6732L209.038 44.024L209.568 44.308L207.579 47.9572Z" fill="#13A090"/>
<path d="M97.8308 258.157L97.2936 257.891L99.1531 254.177L99.6902 254.444L97.8308 258.157Z" fill="#13A090"/>
<path d="M203.96 46.0746L203.426 45.808L205.286 42.0913L205.823 42.3579L203.96 46.0746Z" fill="#13A090"/>
<path d="M101.651 259.958L101.103 259.712L102.833 255.935L103.378 256.184L101.651 259.958Z" fill="#13A090"/>
<path d="M200.283 44.3138L199.739 44.0681L201.466 40.2909L202.01 40.5401L200.283 44.3138Z" fill="#13A090"/>
<path d="M105.531 261.626L104.976 261.397L106.571 257.563L107.126 257.791L105.531 261.626Z" fill="#13A090"/>
<path d="M196.542 42.6853L195.987 42.457L197.582 38.6263L198.136 38.8546L196.542 42.6853Z" fill="#13A090"/>
<path d="M113.457 264.551L112.888 264.361L114.21 260.427L114.779 260.617L113.457 264.551Z" fill="#13A090"/>
<path d="M188.903 39.822L188.337 39.6355L189.655 35.6976L190.225 35.8876L188.903 39.822Z" fill="#13A090"/>
<path d="M117.492 265.804L116.915 265.635L118.101 261.658L118.674 261.827L117.492 265.804Z" fill="#13A090"/>
<path d="M185.015 38.5941L184.439 38.4251L185.621 34.4441L186.197 34.6132L185.015 38.5941Z" fill="#13A090"/>
<path d="M121.57 266.919L120.99 266.767L122.029 262.75L122.609 262.901L121.57 266.919Z" fill="#13A090"/>
<path d="M181.084 37.4987L180.504 37.3506L181.546 33.33L182.126 33.4817L181.084 37.4987Z" fill="#13A090"/>
<path d="M126.003 263.727L125.105 267.777L125.69 267.906L126.588 263.856L126.003 263.727Z" fill="#13A090"/>
<path d="M177.117 36.5393L176.529 36.4121L177.432 32.3624L178.019 32.4931L177.117 36.5393Z" fill="#13A090"/>
<path d="M134.008 265.176L133.396 269.282L133.989 269.37L134.601 265.263L134.008 265.176Z" fill="#13A090"/>
<path d="M169.097 30.8388L168.485 34.9451L169.077 35.0331L169.69 30.9268L169.097 30.8388Z" fill="#13A090"/>
<path d="M138.064 265.748L137.596 269.87L138.191 269.937L138.659 265.815L138.064 265.748Z" fill="#13A090"/>
<path d="M164.92 30.3128L164.452 34.4379L165.047 34.5052L165.515 30.3801L164.92 30.3128Z" fill="#13A090"/>
<path d="M142.119 266.135L141.796 270.27L142.393 270.317L142.716 266.181L142.119 266.135Z" fill="#13A090"/>
<path d="M160.706 29.9185L160.383 34.054L160.98 34.1004L161.303 29.965L160.706 29.9185Z" fill="#13A090"/>
<path d="M146.193 266.394L146.014 270.538L146.612 270.563L146.791 266.419L146.193 266.394Z" fill="#13A090"/>
<path d="M156.488 29.6753L156.306 33.8193L156.905 33.8454L157.086 29.7014L156.488 29.6753Z" fill="#13A090"/>
<path d="M150.475 280.329C118.108 280.011 87.0123 267.708 63.2217 245.808C39.4311 223.907 24.6414 193.969 21.7222 161.804C18.8029 129.639 27.9622 97.5383 47.423 71.7312C66.8838 45.924 95.2585 28.2499 127.042 22.1379C158.826 16.0259 191.752 21.9118 219.433 38.6537C247.114 55.3956 267.576 81.7997 276.849 112.743C286.121 143.687 283.544 176.964 269.617 206.118C255.69 235.272 231.405 258.224 201.475 270.522C185.308 277.175 167.963 280.51 150.475 280.329ZM152.651 21.3208C120.641 21.0946 89.6892 32.7398 65.7993 53.9971C41.9093 75.2544 26.7848 104.608 23.3598 136.364C19.9349 168.12 28.4538 200.013 47.2638 225.857C66.0738 251.701 93.8338 269.652 125.158 276.229C156.483 282.806 189.139 277.538 216.79 261.449C244.441 245.36 265.117 219.596 274.806 189.155C284.495 158.715 282.507 125.768 269.227 96.7065C255.946 67.6453 232.321 44.5416 202.934 31.8777C187.053 25.0258 169.952 21.4354 152.651 21.3208Z" fill="#838BA5"/>
<path d="M150.94 229.573L150.901 229.573C150.145 229.567 149.381 229.56 148.632 229.523C148.379 229.513 148.139 229.404 147.966 229.219C147.794 229.034 147.702 228.788 147.711 228.535C147.72 228.282 147.829 228.043 148.015 227.87C148.201 227.698 148.447 227.606 148.701 227.615C149.436 227.642 150.178 227.659 150.917 227.665L150.966 227.666C151.22 227.668 151.462 227.77 151.64 227.951C151.818 228.131 151.917 228.375 151.914 228.628C151.912 228.881 151.81 229.122 151.629 229.3C151.448 229.477 151.204 229.576 150.95 229.573L150.94 229.573ZM155.525 229.479C155.4 229.482 155.275 229.46 155.158 229.414C155.041 229.369 154.934 229.3 154.843 229.214C154.66 229.039 154.554 228.798 154.549 228.545C154.544 228.292 154.639 228.047 154.815 227.864C154.991 227.682 155.232 227.576 155.485 227.571C156.239 227.532 156.999 227.486 157.749 227.425C157.994 227.421 158.231 227.51 158.412 227.674C158.593 227.838 158.704 228.065 158.723 228.309C158.742 228.552 158.667 228.793 158.514 228.983C158.36 229.173 158.14 229.298 157.898 229.331C157.13 229.391 156.352 229.441 155.581 229.476L155.525 229.479ZM144.075 229.226L143.99 229.225C143.221 229.152 142.447 229.069 141.684 228.975C141.56 228.96 141.439 228.92 141.33 228.858C141.22 228.797 141.124 228.714 141.047 228.615C140.97 228.516 140.912 228.403 140.879 228.282C140.845 228.162 140.836 228.035 140.851 227.911C140.866 227.786 140.906 227.666 140.968 227.557C141.03 227.448 141.113 227.352 141.212 227.275C141.311 227.197 141.424 227.14 141.545 227.107C141.666 227.073 141.793 227.064 141.918 227.079C142.663 227.173 143.419 227.253 144.171 227.325C144.416 227.348 144.643 227.465 144.804 227.651C144.966 227.837 145.049 228.078 145.036 228.323C145.024 228.569 144.917 228.8 144.738 228.969C144.558 229.138 144.321 229.231 144.075 229.229L144.075 229.226ZM162.371 228.845C162.125 228.849 161.887 228.758 161.707 228.592C161.526 228.425 161.417 228.196 161.401 227.951C161.386 227.706 161.465 227.465 161.623 227.277C161.781 227.089 162.006 226.97 162.25 226.943C162.994 226.844 163.748 226.728 164.491 226.612C164.615 226.591 164.742 226.595 164.864 226.623C164.987 226.651 165.102 226.703 165.205 226.776C165.307 226.849 165.394 226.941 165.461 227.047C165.527 227.153 165.572 227.272 165.593 227.395C165.614 227.519 165.61 227.645 165.582 227.768C165.554 227.89 165.502 228.005 165.429 228.107C165.356 228.209 165.263 228.296 165.157 228.363C165.05 228.429 164.932 228.474 164.808 228.495C164.047 228.621 163.272 228.737 162.511 228.825C162.465 228.835 162.418 228.842 162.371 228.845ZM137.263 228.284C137.207 228.289 137.151 228.289 137.095 228.283C136.336 228.144 135.571 227.994 134.819 227.834C134.571 227.781 134.354 227.632 134.216 227.419C134.078 227.207 134.031 226.948 134.084 226.701C134.137 226.453 134.287 226.237 134.5 226.099C134.713 225.962 134.972 225.915 135.22 225.968C135.954 226.121 136.699 226.27 137.44 226.406C137.676 226.448 137.886 226.578 138.031 226.768C138.176 226.958 138.243 227.195 138.221 227.433C138.199 227.671 138.088 227.891 137.911 228.052C137.733 228.212 137.502 228.3 137.263 228.298L137.263 228.284ZM169.141 227.616C168.906 227.615 168.679 227.528 168.504 227.371C168.329 227.214 168.218 226.998 168.193 226.764C168.167 226.531 168.229 226.296 168.366 226.106C168.503 225.915 168.706 225.781 168.936 225.73C169.673 225.562 170.413 225.393 171.14 225.197C171.262 225.165 171.388 225.158 171.513 225.176C171.637 225.193 171.757 225.235 171.865 225.299C171.974 225.362 172.068 225.447 172.144 225.547C172.219 225.647 172.274 225.761 172.306 225.883C172.337 226.004 172.344 226.13 172.327 226.255C172.309 226.379 172.267 226.498 172.204 226.606C172.14 226.714 172.055 226.809 171.955 226.884C171.854 226.959 171.74 227.014 171.618 227.046C170.874 227.235 170.116 227.421 169.365 227.589C169.288 227.608 169.209 227.618 169.13 227.619L169.141 227.616ZM130.562 226.757C130.478 226.756 130.395 226.745 130.314 226.723C129.576 226.521 128.825 226.302 128.084 226.075C127.961 226.041 127.846 225.983 127.746 225.904C127.645 225.825 127.562 225.726 127.5 225.615C127.439 225.503 127.401 225.38 127.388 225.253C127.375 225.126 127.387 224.997 127.425 224.875C127.462 224.753 127.524 224.64 127.606 224.542C127.689 224.445 127.79 224.364 127.904 224.306C128.017 224.248 128.142 224.214 128.269 224.204C128.397 224.195 128.525 224.211 128.646 224.252C129.369 224.472 130.103 224.684 130.823 224.882C131.047 224.943 131.242 225.084 131.37 225.277C131.498 225.471 131.551 225.704 131.519 225.934C131.487 226.164 131.372 226.374 131.196 226.525C131.02 226.677 130.794 226.759 130.562 226.757ZM175.776 225.802C175.548 225.8 175.329 225.718 175.157 225.57C174.985 225.422 174.871 225.218 174.836 224.994C174.802 224.77 174.848 224.54 174.967 224.347C175.086 224.154 175.27 224.01 175.487 223.94C176.189 223.708 176.927 223.466 177.633 223.214C177.868 223.143 178.122 223.166 178.342 223.276C178.562 223.387 178.73 223.578 178.813 223.809C178.895 224.041 178.886 224.295 178.786 224.519C178.686 224.744 178.503 224.921 178.276 225.015C177.549 225.271 176.811 225.52 176.077 225.755C175.979 225.789 175.876 225.806 175.772 225.805L175.776 225.802ZM124.016 224.668C123.905 224.667 123.795 224.648 123.691 224.609C122.961 224.324 122.228 224.038 121.53 223.752C121.298 223.655 121.114 223.471 121.017 223.24C120.92 223.008 120.919 222.748 121.013 222.515C121.107 222.283 121.289 222.097 121.519 221.997C121.75 221.897 122.011 221.892 122.245 221.983C122.943 222.265 123.642 222.543 124.364 222.805C124.576 222.882 124.754 223.032 124.865 223.228C124.977 223.424 125.016 223.653 124.974 223.875C124.933 224.096 124.815 224.296 124.64 224.438C124.465 224.581 124.245 224.657 124.02 224.654L124.016 224.668ZM182.212 223.437C181.991 223.436 181.778 223.359 181.608 223.219C181.439 223.078 181.322 222.884 181.28 222.668C181.237 222.452 181.27 222.228 181.374 222.034C181.478 221.84 181.646 221.688 181.849 221.603C182.552 221.312 183.234 221.007 183.916 220.698C184.032 220.646 184.156 220.617 184.283 220.612C184.41 220.608 184.536 220.629 184.654 220.673C184.773 220.718 184.882 220.785 184.974 220.872C185.067 220.958 185.142 221.062 185.194 221.177C185.246 221.292 185.275 221.416 185.28 221.543C185.284 221.669 185.263 221.795 185.219 221.914C185.174 222.032 185.107 222.141 185.02 222.233C184.933 222.325 184.829 222.4 184.714 222.452C184.011 222.771 183.308 223.083 182.605 223.381C182.477 223.423 182.342 223.437 182.209 223.423L182.212 223.437ZM117.671 221.99C117.531 221.989 117.393 221.958 117.266 221.899C116.568 221.568 115.87 221.224 115.173 220.872C114.947 220.756 114.777 220.555 114.699 220.314C114.622 220.073 114.644 219.811 114.76 219.586C114.876 219.361 115.077 219.191 115.319 219.113C115.56 219.036 115.823 219.058 116.049 219.174C116.722 219.529 117.405 219.853 118.086 220.176C118.281 220.27 118.439 220.428 118.533 220.623C118.627 220.819 118.652 221.04 118.603 221.252C118.553 221.463 118.434 221.651 118.263 221.785C118.093 221.919 117.881 221.992 117.664 221.99L117.671 221.99ZM188.432 220.488C188.22 220.487 188.013 220.415 187.846 220.283C187.678 220.152 187.56 219.968 187.509 219.762C187.458 219.556 187.478 219.338 187.564 219.144C187.651 218.95 187.801 218.791 187.989 218.691C188.654 218.347 189.319 217.976 189.973 217.607C190.195 217.483 190.456 217.452 190.701 217.519C190.946 217.587 191.154 217.748 191.28 217.968C191.342 218.076 191.383 218.197 191.398 218.321C191.414 218.446 191.405 218.572 191.371 218.693C191.337 218.814 191.28 218.927 191.203 219.026C191.125 219.124 191.029 219.207 190.919 219.268C190.25 219.647 189.568 220.019 188.889 220.376C188.743 220.456 188.578 220.496 188.411 220.491L188.432 220.488ZM111.604 218.755C111.437 218.754 111.273 218.708 111.129 218.622C110.46 218.232 109.794 217.828 109.143 217.421C109.036 217.354 108.944 217.267 108.871 217.164C108.799 217.062 108.747 216.946 108.719 216.823C108.692 216.701 108.688 216.574 108.71 216.451C108.731 216.327 108.777 216.209 108.844 216.103C108.911 215.996 108.998 215.905 109.101 215.832C109.204 215.76 109.32 215.708 109.442 215.68C109.565 215.653 109.692 215.649 109.816 215.671C109.94 215.692 110.058 215.737 110.165 215.804C110.799 216.201 111.451 216.598 112.102 216.977C112.285 217.084 112.427 217.248 112.507 217.443C112.586 217.639 112.599 217.855 112.542 218.059C112.485 218.262 112.362 218.441 112.192 218.567C112.022 218.693 111.816 218.759 111.604 218.755ZM194.356 217.029C194.152 217.024 193.955 216.955 193.794 216.831C193.632 216.708 193.514 216.536 193.457 216.341C193.4 216.146 193.406 215.937 193.475 215.746C193.544 215.555 193.673 215.391 193.842 215.277C194.469 214.874 195.103 214.453 195.723 214.028C195.826 213.957 195.943 213.906 196.066 213.88C196.188 213.853 196.315 213.851 196.439 213.874C196.563 213.896 196.681 213.943 196.787 214.011C196.892 214.079 196.984 214.167 197.055 214.27C197.127 214.373 197.177 214.489 197.204 214.612C197.23 214.735 197.232 214.861 197.21 214.985C197.187 215.108 197.141 215.226 197.073 215.331C197.004 215.437 196.916 215.528 196.813 215.599C196.175 216.038 195.527 216.469 194.883 216.883C194.719 216.987 194.529 217.039 194.335 217.032L194.356 217.029ZM105.832 215.024C105.635 215.022 105.443 214.959 105.284 214.844C104.653 214.399 104.027 213.939 103.411 213.476C103.31 213.4 103.226 213.305 103.163 213.196C103.099 213.088 103.058 212.968 103.041 212.843C103.024 212.718 103.031 212.592 103.064 212.47C103.096 212.349 103.151 212.235 103.228 212.134C103.304 212.034 103.399 211.95 103.508 211.887C103.617 211.823 103.737 211.782 103.862 211.765C103.987 211.748 104.114 211.756 104.236 211.788C104.358 211.82 104.472 211.876 104.572 211.952C105.171 212.404 105.784 212.857 106.396 213.292C106.567 213.408 106.696 213.576 106.763 213.771C106.83 213.966 106.832 214.178 106.769 214.374C106.705 214.57 106.579 214.741 106.41 214.86C106.242 214.979 106.039 215.04 105.832 215.034L105.832 215.024ZM199.958 213.068C199.759 213.067 199.564 213.005 199.402 212.888C199.24 212.772 199.119 212.608 199.055 212.42C198.99 212.231 198.987 212.027 199.045 211.837C199.103 211.646 199.219 211.479 199.377 211.357C199.969 210.898 200.565 210.424 201.14 209.95C201.336 209.788 201.587 209.711 201.84 209.735C202.093 209.758 202.326 209.881 202.488 210.076C202.649 210.272 202.727 210.523 202.703 210.775C202.679 211.027 202.556 211.259 202.361 211.421C201.768 211.909 201.158 212.393 200.552 212.866C200.376 213.002 200.159 213.074 199.937 213.071L199.958 213.068ZM100.407 210.805C100.183 210.804 99.9661 210.723 99.7961 210.577C99.2084 210.079 98.6208 209.564 98.0577 209.052C97.9582 208.97 97.8764 208.868 97.8174 208.753C97.7583 208.638 97.7232 208.513 97.714 208.384C97.7049 208.255 97.722 208.126 97.7642 208.004C97.8064 207.882 97.873 207.769 97.9598 207.674C98.0466 207.578 98.152 207.501 98.2695 207.447C98.387 207.393 98.5143 207.363 98.6436 207.359C98.773 207.355 98.9017 207.378 99.0222 207.425C99.1426 207.472 99.2522 207.543 99.3445 207.634C99.9006 208.138 100.474 208.639 101.048 209.123C101.197 209.251 101.303 209.421 101.351 209.611C101.4 209.801 101.389 210.002 101.32 210.185C101.251 210.369 101.127 210.526 100.965 210.637C100.803 210.748 100.611 210.807 100.414 210.806L100.407 210.805ZM205.193 208.635C205.001 208.633 204.815 208.574 204.657 208.466C204.499 208.357 204.378 208.203 204.309 208.025C204.24 207.846 204.226 207.651 204.269 207.465C204.313 207.279 204.411 207.11 204.552 206.98C205.099 206.471 205.65 205.941 206.187 205.421C206.369 205.244 206.614 205.146 206.868 205.148C207.123 205.151 207.366 205.253 207.546 205.433C207.634 205.522 207.704 205.627 207.751 205.744C207.798 205.86 207.822 205.984 207.821 206.109C207.82 206.235 207.794 206.359 207.745 206.474C207.696 206.589 207.624 206.694 207.534 206.781C206.983 207.322 206.418 207.859 205.854 208.378C205.763 208.464 205.656 208.531 205.539 208.576C205.422 208.621 205.297 208.642 205.172 208.638L205.193 208.635ZM95.3748 206.136C95.2491 206.136 95.1247 206.111 95.009 206.062C94.8933 206.013 94.7887 205.941 94.7012 205.851C94.1595 205.305 93.6178 204.745 93.0971 204.185C92.9241 203.998 92.8325 203.75 92.8425 203.496C92.8525 203.242 92.9633 203.002 93.1505 202.829C93.3378 202.656 93.5861 202.565 93.8408 202.575C94.0956 202.585 94.336 202.696 94.509 202.882C95.0193 203.432 95.5505 203.978 96.0749 204.514C96.2077 204.648 96.2973 204.819 96.3325 205.005C96.3677 205.191 96.3469 205.383 96.2726 205.556C96.1984 205.73 96.0741 205.878 95.9155 205.981C95.7569 206.085 95.5712 206.139 95.3818 206.136L95.3748 206.136ZM210.029 203.766C209.846 203.76 209.668 203.703 209.517 203.6C209.366 203.498 209.247 203.354 209.175 203.186C209.103 203.019 209.08 202.834 209.11 202.654C209.139 202.474 209.22 202.306 209.342 202.17C209.844 201.615 210.349 201.046 210.837 200.473C211.004 200.282 211.239 200.163 211.492 200.143C211.746 200.124 211.997 200.205 212.19 200.369C212.286 200.451 212.365 200.55 212.422 200.662C212.479 200.774 212.514 200.896 212.524 201.021C212.533 201.146 212.518 201.272 212.479 201.391C212.439 201.511 212.377 201.621 212.295 201.716C211.792 202.299 211.28 202.885 210.76 203.45C210.666 203.556 210.55 203.639 210.42 203.694C210.29 203.749 210.149 203.775 210.008 203.769L210.029 203.766ZM90.7488 201.058C90.608 201.056 90.4694 201.023 90.3428 200.962C90.2162 200.9 90.1047 200.812 90.0162 200.703C89.5274 200.111 89.0386 199.506 88.5639 198.901C88.4081 198.701 88.3384 198.447 88.37 198.196C88.4017 197.944 88.5322 197.716 88.7327 197.561C88.9333 197.405 89.1875 197.336 89.4395 197.367C89.6914 197.399 89.9205 197.529 90.0762 197.729C90.5406 198.317 91.0155 198.908 91.4939 199.488C91.6103 199.628 91.6841 199.799 91.7067 199.979C91.7292 200.16 91.6996 200.343 91.6213 200.507C91.543 200.671 91.4193 200.81 91.2647 200.906C91.1101 201.003 90.9311 201.053 90.7488 201.051L90.7488 201.058ZM214.405 198.497C214.199 198.495 213.998 198.427 213.833 198.304C213.63 198.151 213.497 197.923 213.463 197.672C213.428 197.421 213.495 197.166 213.648 196.964C214.105 196.367 214.558 195.755 214.994 195.148C215.148 194.957 215.368 194.833 215.611 194.799C215.853 194.766 216.1 194.826 216.299 194.968C216.498 195.11 216.636 195.323 216.683 195.563C216.731 195.802 216.684 196.051 216.554 196.258C216.107 196.88 215.643 197.508 215.179 198.12C215.088 198.239 214.97 198.335 214.835 198.4C214.701 198.466 214.552 198.499 214.402 198.497L214.405 198.497ZM86.5917 195.599C86.4379 195.599 86.2864 195.561 86.1504 195.489C86.0144 195.418 85.8978 195.314 85.8106 195.188C85.3711 194.555 84.9387 193.912 84.5204 193.269C84.4033 193.056 84.3713 192.807 84.4308 192.572C84.4904 192.337 84.6371 192.134 84.8413 192.002C85.0455 191.871 85.292 191.822 85.5311 191.865C85.7703 191.908 85.9841 192.04 86.1297 192.234C86.5377 192.859 86.9597 193.492 87.3888 194.107C87.4604 194.21 87.5108 194.327 87.5372 194.45C87.5636 194.572 87.5654 194.699 87.5426 194.823C87.5198 194.946 87.4727 195.064 87.4041 195.169C87.3355 195.275 87.2468 195.365 87.143 195.436C86.9829 195.543 86.7947 195.6 86.6022 195.6L86.5917 195.599ZM218.305 192.862C218.128 192.859 217.954 192.808 217.802 192.714C217.588 192.579 217.436 192.365 217.38 192.118C217.324 191.871 217.367 191.612 217.502 191.398C217.906 190.762 218.301 190.115 218.684 189.468C218.819 189.261 219.028 189.114 219.269 189.057C219.51 189.001 219.763 189.039 219.977 189.164C220.19 189.29 220.346 189.492 220.413 189.73C220.48 189.968 220.453 190.222 220.336 190.44C219.945 191.1 219.537 191.764 219.125 192.414C219.04 192.551 218.922 192.665 218.781 192.744C218.64 192.822 218.481 192.864 218.319 192.866L218.305 192.862ZM82.9383 189.81C82.7697 189.809 82.6042 189.765 82.4585 189.68C82.3128 189.595 82.1922 189.474 82.1088 189.327C81.7291 188.66 81.353 187.983 80.9945 187.305C80.8862 187.082 80.869 186.825 80.9464 186.59C81.0239 186.354 81.19 186.157 81.4098 186.042C81.6296 185.926 81.8859 185.899 82.1247 185.968C82.3635 186.037 82.5662 186.196 82.6902 186.411C83.0349 187.071 83.4075 187.734 83.7768 188.384C83.8387 188.493 83.8785 188.613 83.8938 188.737C83.9092 188.862 83.8998 188.988 83.8663 189.109C83.8328 189.23 83.7757 189.343 83.6984 189.441C83.6211 189.54 83.525 189.623 83.4157 189.684C83.27 189.766 83.1056 189.81 82.9383 189.81ZM221.718 186.915C221.568 186.912 221.421 186.875 221.288 186.806C221.176 186.749 221.077 186.671 220.996 186.576C220.914 186.48 220.853 186.37 220.814 186.251C220.776 186.131 220.762 186.006 220.772 185.881C220.782 185.756 220.817 185.635 220.875 185.524C221.231 184.859 221.555 184.177 221.883 183.498C221.992 183.268 222.189 183.09 222.43 183.003C222.671 182.917 222.936 182.93 223.167 183.039C223.398 183.148 223.577 183.344 223.663 183.585C223.749 183.825 223.737 184.089 223.627 184.32C223.292 185.016 222.947 185.712 222.594 186.408C222.511 186.563 222.386 186.692 222.234 186.781C222.082 186.869 221.908 186.915 221.732 186.911L221.718 186.915ZM79.8373 183.724C79.6548 183.723 79.4764 183.669 79.3234 183.57C79.1703 183.471 79.0488 183.33 78.9733 183.164C78.6535 182.463 78.3407 181.761 78.0419 181.06C77.96 180.831 77.969 180.579 78.067 180.356C78.1651 180.133 78.3447 179.956 78.5692 179.861C78.7937 179.766 79.0461 179.761 79.2748 179.845C79.5035 179.93 79.6911 180.098 79.7993 180.316C80.0911 181.018 80.3971 181.698 80.7102 182.375C80.7624 182.489 80.7916 182.612 80.7961 182.738C80.8006 182.863 80.7803 182.988 80.7364 183.105C80.6924 183.223 80.6258 183.33 80.5401 183.422C80.4545 183.514 80.3515 183.588 80.2372 183.64C80.1118 183.697 79.9752 183.726 79.8373 183.724ZM224.625 180.68C224.505 180.677 224.386 180.653 224.275 180.607C224.158 180.56 224.052 180.491 223.963 180.402C223.873 180.314 223.802 180.209 223.753 180.094C223.705 179.978 223.679 179.854 223.678 179.728C223.678 179.603 223.702 179.479 223.75 179.362C224.036 178.666 224.311 177.969 224.576 177.273C224.672 177.044 224.852 176.862 225.079 176.763C225.306 176.664 225.563 176.657 225.795 176.743C226.028 176.829 226.218 177.002 226.326 177.224C226.434 177.447 226.451 177.703 226.374 177.938C226.102 178.659 225.819 179.387 225.526 180.097C225.449 180.275 225.321 180.426 225.157 180.53C224.993 180.634 224.801 180.686 224.607 180.68L224.625 180.68ZM77.2566 177.394C77.06 177.393 76.8685 177.331 76.7084 177.217C76.5483 177.103 76.4273 176.943 76.3618 176.758C76.1017 176.036 75.8522 175.3 75.6132 174.571C75.5447 174.332 75.5721 174.076 75.6894 173.857C75.8068 173.637 76.005 173.472 76.2422 173.396C76.4793 173.32 76.7368 173.339 76.9602 173.449C77.1836 173.559 77.3554 173.751 77.4394 173.985C77.6716 174.686 77.9142 175.411 78.1674 176.119C78.2099 176.238 78.2286 176.363 78.2224 176.488C78.2161 176.613 78.1851 176.736 78.1311 176.849C78.0771 176.963 78.0011 177.064 77.9076 177.148C77.8141 177.232 77.7049 177.296 77.5863 177.338C77.4754 177.379 77.3574 177.398 77.2391 177.394L77.2566 177.394ZM226.941 174.224C226.848 174.223 226.755 174.209 226.665 174.183C226.423 174.109 226.22 173.941 226.101 173.717C225.982 173.494 225.957 173.232 226.031 172.99C226.254 172.293 226.467 171.547 226.665 170.825C226.694 170.699 226.748 170.58 226.824 170.476C226.901 170.371 226.997 170.283 227.109 170.217C227.22 170.15 227.343 170.107 227.472 170.09C227.6 170.072 227.731 170.081 227.856 170.115C227.981 170.15 228.097 170.209 228.199 170.29C228.3 170.37 228.384 170.47 228.445 170.584C228.507 170.698 228.545 170.823 228.556 170.952C228.568 171.08 228.554 171.21 228.514 171.333C228.311 172.072 228.091 172.822 227.865 173.55C227.804 173.75 227.679 173.924 227.509 174.046C227.339 174.168 227.133 174.23 226.924 174.224L226.941 174.224ZM75.2381 170.853C75.0281 170.852 74.8241 170.782 74.6576 170.655C74.491 170.527 74.371 170.348 74.3159 170.146C74.1225 169.404 73.9398 168.647 73.7674 167.902C73.7153 167.656 73.762 167.4 73.8974 167.188C74.0329 166.976 74.2463 166.826 74.4916 166.77C74.7369 166.714 74.9946 166.756 75.209 166.888C75.4234 167.019 75.5774 167.23 75.6378 167.473C75.8033 168.205 75.9757 168.941 76.1728 169.666C76.2046 169.787 76.2121 169.913 76.1948 170.038C76.1775 170.162 76.1359 170.282 76.0722 170.39C76.0085 170.498 75.924 170.593 75.8236 170.668C75.7232 170.744 75.6088 170.799 75.487 170.831C75.3994 170.848 75.3099 170.855 75.2207 170.849L75.2381 170.853ZM228.671 167.599C228.607 167.598 228.542 167.591 228.479 167.58C228.23 167.527 228.012 167.378 227.873 167.165C227.734 166.952 227.686 166.693 227.739 166.445C227.899 165.712 228.045 164.969 228.181 164.233C228.204 164.109 228.251 163.991 228.319 163.885C228.387 163.78 228.476 163.689 228.58 163.617C228.683 163.546 228.8 163.495 228.923 163.469C229.047 163.442 229.174 163.44 229.298 163.463C229.422 163.486 229.54 163.532 229.646 163.601C229.752 163.669 229.843 163.757 229.915 163.861C229.987 163.964 230.037 164.081 230.064 164.204C230.09 164.327 230.092 164.454 230.07 164.577C229.93 165.334 229.777 166.095 229.616 166.845C229.569 167.062 229.447 167.256 229.272 167.394C229.097 167.531 228.88 167.604 228.657 167.599L228.671 167.599ZM73.7989 164.156C73.574 164.153 73.3571 164.072 73.1862 163.926C73.0152 163.78 72.901 163.579 72.8634 163.358C72.7367 162.605 72.617 161.836 72.5114 161.073C72.4853 160.826 72.5567 160.578 72.7105 160.382C72.8642 160.186 73.0883 160.058 73.3353 160.024C73.5822 159.99 73.8327 160.054 74.0336 160.201C74.2345 160.348 74.3702 160.568 74.4119 160.813C74.5142 161.558 74.6305 162.307 74.7434 163.042C74.764 163.165 74.76 163.292 74.7316 163.414C74.7032 163.536 74.651 163.651 74.5779 163.753C74.5049 163.855 74.4124 163.942 74.3058 164.008C74.1992 164.074 74.0805 164.119 73.9566 164.139C73.9 164.15 73.8425 164.155 73.7849 164.155L73.7989 164.156ZM229.8 160.85L229.691 160.849C229.44 160.819 229.212 160.691 229.055 160.493C228.899 160.295 228.827 160.044 228.856 159.793C228.95 159.053 229.033 158.299 229.102 157.552C229.126 157.299 229.25 157.066 229.446 156.904C229.642 156.742 229.895 156.665 230.148 156.689C230.401 156.713 230.635 156.836 230.797 157.032C230.959 157.227 231.037 157.479 231.013 157.732C230.94 158.497 230.853 159.268 230.759 160.029C230.726 160.259 230.61 160.469 230.434 160.619C230.257 160.77 230.032 160.852 229.8 160.85ZM72.9453 157.358C72.7059 157.356 72.4758 157.265 72.3003 157.103C72.1247 156.94 72.0164 156.718 71.9966 156.48C71.9364 155.718 71.8869 154.942 71.8478 154.176C71.836 153.92 71.9266 153.67 72.0996 153.481C72.2726 153.291 72.5139 153.178 72.7704 153.167C73.0269 153.155 73.2775 153.245 73.4672 153.418C73.6569 153.591 73.7701 153.831 73.7819 154.087C73.8176 154.835 73.8673 155.591 73.9276 156.336C73.9396 156.462 73.9261 156.589 73.8881 156.71C73.8501 156.831 73.7883 156.944 73.7063 157.041C73.6243 157.138 73.5237 157.217 73.4104 157.275C73.2972 157.333 73.1736 157.367 73.0468 157.377L72.9453 157.358ZM230.34 154.026C230.086 154.016 229.847 153.907 229.674 153.721C229.501 153.536 229.408 153.289 229.417 153.036C229.444 152.288 229.461 151.53 229.467 150.782L229.469 150.59C229.471 150.336 229.574 150.093 229.756 149.915C229.937 149.737 230.182 149.639 230.437 149.641C230.691 149.643 230.934 149.746 231.113 149.927C231.291 150.108 231.39 150.352 231.388 150.606L231.387 150.802C231.38 151.571 231.374 152.346 231.332 153.115C231.321 153.367 231.21 153.604 231.024 153.774C230.839 153.945 230.593 154.035 230.34 154.026ZM72.6876 150.517C72.4337 150.515 72.191 150.412 72.0126 150.232C71.8343 150.052 71.7348 149.808 71.736 149.555L71.7368 149.461C71.743 148.723 71.7492 147.983 71.7869 147.246C71.796 146.992 71.9059 146.752 72.0922 146.579C72.2786 146.406 72.5262 146.313 72.7806 146.323C73.0351 146.332 73.2755 146.441 73.449 146.627C73.6224 146.813 73.7148 147.06 73.7057 147.314C73.6788 148.013 73.662 148.757 73.656 149.473L73.6552 149.571C73.6531 149.823 73.5513 150.064 73.372 150.241C73.1927 150.418 72.9505 150.517 72.6981 150.517L72.6876 150.517ZM230.287 146.984C230.043 146.981 229.81 146.886 229.633 146.718C229.457 146.549 229.352 146.32 229.339 146.077C229.3 145.329 229.25 144.57 229.19 143.829C229.179 143.704 229.194 143.578 229.233 143.458C229.271 143.338 229.333 143.227 229.415 143.131C229.497 143.035 229.596 142.957 229.708 142.899C229.821 142.842 229.943 142.807 230.069 142.797C230.194 142.787 230.321 142.801 230.441 142.84C230.561 142.878 230.672 142.94 230.768 143.022C230.864 143.103 230.943 143.203 231.001 143.315C231.058 143.426 231.093 143.549 231.103 143.674C231.163 144.436 231.213 145.213 231.255 145.982C231.268 146.235 231.179 146.482 231.009 146.67C230.838 146.858 230.6 146.971 230.347 146.984L230.287 146.984ZM73.0322 143.681L72.9517 143.68C72.8249 143.669 72.7017 143.632 72.5893 143.573C72.4769 143.513 72.3774 143.432 72.2968 143.334C72.2161 143.235 72.1558 143.122 72.1195 143C72.0831 142.879 72.0714 142.751 72.0849 142.625C72.1579 141.863 72.2414 141.092 72.3354 140.331C72.3757 140.087 72.5089 139.868 72.7071 139.72C72.9052 139.572 73.1531 139.506 73.3988 139.536C73.6446 139.566 73.8692 139.69 74.0257 139.881C74.1822 140.073 74.2585 140.317 74.2387 140.563C74.1484 141.307 74.065 142.061 73.9957 142.805C73.9754 143.043 73.8662 143.266 73.6898 143.428C73.5135 143.59 73.2826 143.68 73.0427 143.681L73.0322 143.681ZM229.637 140.17C229.407 140.168 229.186 140.083 229.013 139.932C228.84 139.78 228.727 139.572 228.695 139.345C228.593 138.607 228.476 137.854 228.363 137.119C228.319 136.869 228.376 136.612 228.522 136.404C228.668 136.195 228.891 136.054 229.142 136.009C229.392 135.965 229.65 136.022 229.859 136.168C230.068 136.313 230.21 136.536 230.254 136.786C230.381 137.542 230.5 138.308 230.606 139.071C230.623 139.195 230.616 139.322 230.584 139.443C230.552 139.564 230.497 139.678 230.421 139.778C230.345 139.878 230.25 139.962 230.141 140.026C230.033 140.089 229.913 140.13 229.788 140.147C229.742 140.159 229.695 140.166 229.648 140.171L229.637 140.17ZM73.9718 136.899C73.917 136.904 73.8619 136.903 73.8072 136.897C73.6833 136.875 73.5651 136.829 73.4592 136.761C73.3533 136.693 73.2619 136.605 73.1902 136.502C73.1185 136.399 73.068 136.282 73.0414 136.16C73.0148 136.037 73.0128 135.91 73.0355 135.787C73.1714 135.033 73.3249 134.272 73.4854 133.519C73.5115 133.396 73.5615 133.28 73.6327 133.176C73.7039 133.073 73.7949 132.984 73.9003 132.916C74.0058 132.847 74.1237 132.8 74.2474 132.778C74.371 132.755 74.498 132.756 74.6211 132.782C74.7441 132.808 74.8608 132.858 74.9645 132.929C75.0682 133 75.1569 133.091 75.2254 133.196C75.294 133.302 75.3411 133.419 75.364 133.543C75.387 133.666 75.3854 133.793 75.3593 133.915C75.2025 134.652 75.0562 135.395 74.9204 136.131C74.8767 136.347 74.7594 136.542 74.5885 136.682C74.4175 136.822 74.2034 136.898 73.9823 136.899L73.9718 136.899ZM228.412 133.436C228.197 133.434 227.988 133.36 227.82 133.226C227.653 133.091 227.535 132.904 227.486 132.695C227.321 131.97 227.148 131.235 226.948 130.506C226.893 130.264 226.935 130.009 227.065 129.797C227.194 129.584 227.402 129.431 227.643 129.368C227.884 129.306 228.14 129.339 228.357 129.462C228.574 129.585 228.735 129.787 228.805 130.026C228.998 130.768 229.184 131.524 229.357 132.27C229.413 132.516 229.37 132.773 229.237 132.988C229.104 133.202 228.892 133.355 228.647 133.414C228.57 133.431 228.491 133.438 228.412 133.436ZM75.5199 130.223C75.4372 130.222 75.3549 130.211 75.275 130.189C75.1522 130.158 75.0368 130.103 74.9354 130.027C74.8341 129.951 74.7489 129.856 74.6846 129.747C74.6204 129.638 74.5785 129.517 74.5613 129.392C74.5441 129.266 74.552 129.139 74.5844 129.016C74.7903 128.277 75.0067 127.531 75.2335 126.796C75.3144 126.561 75.4836 126.367 75.7053 126.254C75.9271 126.141 76.1841 126.119 76.4221 126.192C76.66 126.264 76.8604 126.426 76.9808 126.644C77.1013 126.861 77.1324 127.117 77.0676 127.356C76.8479 128.074 76.6351 128.803 76.4364 129.521C76.3803 129.723 76.2591 129.902 76.0917 130.028C75.9242 130.155 75.7196 130.223 75.5094 130.223L75.5199 130.223ZM226.579 126.837C226.379 126.836 226.184 126.771 226.022 126.653C225.861 126.535 225.74 126.37 225.678 126.18C225.446 125.479 225.2 124.75 224.946 124.045C224.897 123.925 224.872 123.797 224.873 123.667C224.875 123.537 224.903 123.409 224.956 123.29C225.009 123.172 225.085 123.065 225.18 122.977C225.276 122.888 225.388 122.82 225.511 122.777C225.633 122.733 225.763 122.715 225.893 122.723C226.023 122.731 226.15 122.766 226.266 122.824C226.382 122.883 226.485 122.965 226.569 123.064C226.652 123.164 226.715 123.279 226.752 123.403C227.012 124.125 227.262 124.861 227.501 125.59C227.54 125.71 227.555 125.835 227.545 125.96C227.535 126.085 227.5 126.207 227.443 126.318C227.386 126.43 227.307 126.529 227.211 126.61C227.115 126.691 227.004 126.753 226.885 126.791C226.783 126.824 226.676 126.84 226.569 126.837L226.579 126.837ZM77.62 123.716C77.4663 123.715 77.3152 123.677 77.1793 123.605C77.0435 123.533 76.9271 123.43 76.8398 123.304C76.7525 123.178 76.6971 123.032 76.6781 122.88C76.6591 122.728 76.6771 122.573 76.7307 122.43C76.9994 121.708 77.2822 120.984 77.5754 120.27C77.6165 120.146 77.6828 120.031 77.77 119.933C77.8572 119.836 77.9636 119.757 78.0826 119.702C78.2016 119.647 78.3307 119.616 78.4618 119.613C78.5929 119.61 78.7234 119.633 78.8451 119.682C78.9667 119.731 79.0771 119.804 79.1693 119.897C79.2615 119.99 79.3336 120.101 79.3811 120.223C79.4286 120.345 79.4505 120.476 79.4456 120.607C79.4406 120.737 79.4088 120.866 79.3521 120.984C79.0661 121.68 78.7905 122.377 78.5289 123.091C78.4603 123.276 78.3362 123.435 78.1735 123.547C78.0108 123.659 77.8175 123.718 77.62 123.716ZM224.164 120.439C223.978 120.438 223.796 120.382 223.64 120.279C223.485 120.176 223.363 120.03 223.29 119.859C222.998 119.157 222.688 118.48 222.379 117.803C222.273 117.571 222.264 117.306 222.354 117.066C222.444 116.827 222.626 116.634 222.859 116.528C223.092 116.423 223.358 116.414 223.597 116.504C223.837 116.593 224.031 116.775 224.137 117.007C224.457 117.709 224.773 118.41 225.072 119.112C225.122 119.227 225.148 119.352 225.15 119.477C225.151 119.603 225.128 119.728 225.08 119.845C225.033 119.961 224.963 120.067 224.874 120.157C224.786 120.246 224.68 120.317 224.564 120.366C224.437 120.416 224.301 120.438 224.164 120.432L224.164 120.439ZM80.3069 117.399C80.1666 117.397 80.0283 117.365 79.9014 117.305C79.788 117.251 79.6863 117.176 79.6022 117.082C79.5181 116.989 79.4533 116.881 79.4113 116.762C79.3694 116.644 79.3512 116.519 79.3578 116.394C79.3644 116.269 79.3956 116.146 79.4498 116.033C79.7813 115.337 80.1269 114.641 80.4795 113.945C80.5952 113.719 80.796 113.548 81.0377 113.471C81.2794 113.393 81.5422 113.414 81.7684 113.529C81.9945 113.645 82.1654 113.845 82.2436 114.086C82.3217 114.327 82.3006 114.59 82.1849 114.815C81.8291 115.476 81.5046 116.158 81.1802 116.841C81.1026 117.006 80.9791 117.146 80.8244 117.244C80.6696 117.342 80.4901 117.393 80.3069 117.392L80.3069 117.399ZM221.218 114.267C221.046 114.266 220.877 114.218 220.729 114.129C220.582 114.04 220.462 113.913 220.381 113.761C220.037 113.101 219.661 112.437 219.288 111.791C219.163 111.57 219.131 111.309 219.198 111.065C219.266 110.821 219.428 110.613 219.649 110.488C219.869 110.362 220.131 110.33 220.376 110.396C220.621 110.463 220.83 110.624 220.956 110.844C221.336 111.508 221.712 112.189 222.074 112.863C222.133 112.973 222.17 113.095 222.182 113.22C222.194 113.345 222.182 113.471 222.145 113.591C222.108 113.712 222.048 113.823 221.968 113.92C221.887 114.017 221.789 114.097 221.678 114.156C221.536 114.23 221.378 114.268 221.218 114.267ZM83.545 111.335C83.3772 111.334 83.2128 111.288 83.0682 111.203C82.9237 111.117 82.8041 110.996 82.7213 110.85C82.6385 110.705 82.5955 110.54 82.5965 110.372C82.5975 110.205 82.6425 110.04 82.727 109.896C83.1179 109.232 83.5262 108.568 83.9345 107.917C84.0757 107.716 84.2889 107.577 84.5301 107.529C84.7713 107.48 85.0219 107.526 85.2304 107.656C85.4388 107.787 85.589 107.992 85.65 108.23C85.711 108.468 85.6781 108.72 85.5581 108.934C85.1605 109.567 84.7628 110.217 84.3791 110.864C84.2934 111.01 84.1698 111.132 84.0213 111.215C83.8728 111.297 83.7047 111.339 83.5345 111.335L83.545 111.335ZM217.73 108.377C217.571 108.376 217.416 108.336 217.277 108.26C217.138 108.183 217.021 108.074 216.935 107.941C216.523 107.315 216.101 106.683 215.676 106.071C215.531 105.863 215.476 105.606 215.521 105.356C215.566 105.107 215.709 104.886 215.918 104.742C216.127 104.598 216.385 104.542 216.635 104.587C216.884 104.633 217.106 104.775 217.251 104.984C217.69 105.613 218.122 106.26 218.544 106.903C218.638 107.048 218.69 107.215 218.696 107.388C218.702 107.56 218.661 107.731 218.577 107.882C218.494 108.033 218.371 108.159 218.222 108.246C218.073 108.333 217.903 108.379 217.73 108.377ZM87.2919 105.587C87.1171 105.585 86.9463 105.535 86.7979 105.443C86.6494 105.351 86.529 105.22 86.4495 105.065C86.3701 104.909 86.3347 104.735 86.3471 104.561C86.3595 104.387 86.4193 104.22 86.52 104.078C86.963 103.456 87.4271 102.827 87.8946 102.213C88.0477 102.01 88.275 101.877 88.5266 101.842C88.7781 101.807 89.0332 101.874 89.2358 102.026C89.4385 102.179 89.5719 102.406 89.6069 102.657C89.6419 102.908 89.5756 103.162 89.4225 103.365C88.9691 103.965 88.5157 104.577 88.0798 105.185C87.9896 105.311 87.8698 105.414 87.7306 105.485C87.5915 105.555 87.4372 105.59 87.2814 105.587L87.2919 105.587ZM213.752 102.805C213.609 102.805 213.468 102.773 213.339 102.712C213.21 102.65 213.096 102.56 213.006 102.449C212.545 101.862 212.067 101.271 211.585 100.69C211.438 100.493 211.373 100.248 211.403 100.004C211.433 99.7608 211.555 99.5381 211.745 99.3819C211.934 99.2258 212.176 99.1482 212.422 99.165C212.667 99.1818 212.896 99.2918 213.062 99.4724C213.555 100.064 214.044 100.669 214.518 101.27C214.596 101.369 214.653 101.482 214.687 101.603C214.72 101.724 214.73 101.85 214.714 101.975C214.699 102.099 214.659 102.22 214.597 102.329C214.535 102.438 214.452 102.534 214.353 102.611C214.174 102.747 213.953 102.817 213.728 102.808L213.752 102.805ZM91.5402 100.181C91.3582 100.179 91.1806 100.126 91.028 100.027C90.8754 99.9276 90.7542 99.7873 90.6785 99.6222C90.6028 99.4571 90.5757 99.2739 90.6004 99.094C90.6251 98.9141 90.7005 98.7449 90.8179 98.6061C91.3166 98.0232 91.8329 97.437 92.349 96.8717C92.5201 96.6838 92.7587 96.5711 93.0128 96.5582C93.2668 96.5453 93.5157 96.6332 93.705 96.8027C93.7986 96.8863 93.8746 96.9877 93.9286 97.1009C93.9827 97.214 94.0136 97.3368 94.0197 97.462C94.0259 97.5872 94.007 97.7124 93.9643 97.8303C93.9215 97.9481 93.8558 98.0564 93.7708 98.1487C93.2688 98.7036 92.7666 99.276 92.2785 99.845C92.1852 99.9553 92.0681 100.043 91.936 100.102C91.8039 100.161 91.6602 100.189 91.5156 100.185L91.5402 100.181ZM209.289 97.599C209.157 97.5988 209.028 97.5715 208.907 97.5188C208.787 97.466 208.679 97.389 208.591 97.2926C208.077 96.7431 207.549 96.197 207.021 95.6649C206.925 95.577 206.849 95.4707 206.795 95.3522C206.742 95.2338 206.713 95.1058 206.711 94.976C206.709 94.8462 206.733 94.7174 206.782 94.5972C206.832 94.4771 206.905 94.3682 206.998 94.2772C207.09 94.1862 207.201 94.1149 207.322 94.0678C207.443 94.0206 207.573 93.9986 207.703 94.003C207.833 94.0073 207.961 94.038 208.078 94.0932C208.196 94.1484 208.301 94.2269 208.388 94.3239C208.926 94.8701 209.468 95.4303 209.992 95.9939C210.12 96.1307 210.205 96.3021 210.236 96.4867C210.267 96.6713 210.243 96.8609 210.167 97.032C210.091 97.2032 209.966 97.3481 209.808 97.4489C209.65 97.5497 209.466 97.6019 209.278 97.5989L209.289 97.599ZM96.223 95.1674C96.0339 95.1657 95.8496 95.1082 95.6933 95.0021C95.537 94.8959 95.4158 94.7459 95.3449 94.571C95.274 94.3961 95.2567 94.2042 95.2951 94.0195C95.3335 93.8348 95.426 93.6656 95.5608 93.5333C96.1081 92.9963 96.6695 92.4593 97.2343 91.9363C97.4216 91.7632 97.67 91.6714 97.9251 91.6811C98.1802 91.6907 98.421 91.8011 98.5946 91.988C98.7681 92.1748 98.8601 92.4227 98.8504 92.6773C98.8408 92.9318 98.7301 93.1721 98.5429 93.3452C97.9887 93.8543 97.4414 94.3843 96.9047 94.904C96.8113 94.994 96.7005 95.064 96.5791 95.1099C96.4576 95.1557 96.3281 95.1764 96.1984 95.1707L96.223 95.1674ZM204.387 92.7946C204.153 92.7923 203.928 92.7046 203.755 92.5482C203.195 92.0437 202.622 91.5462 202.051 91.0591C201.858 90.8948 201.738 90.6607 201.718 90.4082C201.698 90.1557 201.779 89.9055 201.944 89.7128C202.108 89.52 202.343 89.4003 202.596 89.3802C202.849 89.36 203.1 89.441 203.293 89.6053C203.881 90.103 204.468 90.6146 205.031 91.1296C205.177 91.2592 205.279 91.43 205.324 91.619C205.369 91.8081 205.356 92.0065 205.285 92.1876C205.214 92.3687 205.089 92.5239 204.928 92.6323C204.766 92.7408 204.575 92.7974 204.38 92.7945L204.387 92.7946ZM101.326 90.5798C101.13 90.5785 100.939 90.5168 100.779 90.4034C100.619 90.2899 100.498 90.13 100.432 89.9455C100.366 89.761 100.359 89.5608 100.411 89.372C100.463 89.1833 100.572 89.0151 100.724 88.8904C101.313 88.4026 101.923 87.915 102.533 87.4413C102.632 87.3641 102.745 87.3072 102.866 87.2737C102.987 87.2402 103.114 87.2309 103.239 87.2462C103.363 87.2615 103.484 87.3012 103.593 87.363C103.703 87.4248 103.799 87.5075 103.876 87.6064C103.954 87.7052 104.011 87.8183 104.044 87.9392C104.078 88.0601 104.087 88.1863 104.072 88.3108C104.056 88.4353 104.017 88.5555 103.955 88.6647C103.893 88.7738 103.81 88.8697 103.711 88.9469C103.115 89.4102 102.523 89.884 101.948 90.3614C101.767 90.5117 101.537 90.5905 101.301 90.5831L101.326 90.5798ZM199.086 88.4272C198.881 88.4262 198.681 88.3596 198.517 88.2372C197.918 87.7848 197.302 87.3358 196.686 86.9008C196.495 86.7476 196.37 86.5274 196.337 86.2854C196.303 86.0433 196.364 85.7976 196.506 85.5987C196.648 85.3998 196.861 85.2627 197.102 85.2154C197.342 85.1682 197.591 85.2144 197.798 85.3446C198.429 85.7902 199.059 86.2498 199.671 86.7127C199.772 86.7878 199.857 86.8821 199.921 86.9901C199.985 87.098 200.027 87.2176 200.045 87.3419C200.062 87.4661 200.055 87.5926 200.023 87.714C199.991 87.8354 199.936 87.9494 199.86 88.0493C199.767 88.1719 199.646 88.2704 199.507 88.3368C199.368 88.4031 199.215 88.4352 199.061 88.4305L199.086 88.4272ZM106.782 86.4531C106.576 86.4554 106.374 86.3909 106.207 86.269C106.04 86.1472 105.917 85.9746 105.857 85.7773C105.797 85.5799 105.802 85.3684 105.872 85.1744C105.943 84.9804 106.074 84.8144 106.247 84.7013C106.878 84.2662 107.526 83.8349 108.17 83.4174C108.384 83.2799 108.644 83.2326 108.893 83.2857C109.142 83.3389 109.36 83.4883 109.499 83.7012C109.567 83.8062 109.614 83.9238 109.637 84.0471C109.66 84.1704 109.658 84.2969 109.632 84.4195C109.605 84.542 109.555 84.6582 109.483 84.7612C109.412 84.8642 109.32 84.9521 109.215 85.0197C108.584 85.4268 107.954 85.8479 107.337 86.2725C107.176 86.3892 106.982 86.4523 106.782 86.4531ZM193.396 84.5423C193.217 84.541 193.043 84.4899 192.893 84.3947C192.255 83.9945 191.6 83.6011 190.955 83.2217C190.736 83.0934 190.578 82.8837 190.514 82.6387C190.451 82.3937 190.487 82.1335 190.616 81.9154C190.744 81.6973 190.955 81.5391 191.2 81.4756C191.446 81.4121 191.706 81.4486 191.925 81.5769C192.587 81.9634 193.256 82.3674 193.911 82.7783C194.089 82.8883 194.225 83.0531 194.299 83.2476C194.374 83.4421 194.383 83.6556 194.324 83.8555C194.266 84.0554 194.143 84.2307 193.976 84.3547C193.808 84.4787 193.604 84.5446 193.396 84.5423ZM112.599 82.8151C112.388 82.8145 112.183 82.7441 112.016 82.6148C111.849 82.4856 111.729 82.3049 111.676 82.1008C111.623 81.8968 111.639 81.6809 111.722 81.487C111.805 81.2931 111.95 81.132 112.134 81.0289C112.803 80.6501 113.485 80.2784 114.164 79.9172C114.276 79.8503 114.4 79.8067 114.529 79.7892C114.658 79.7717 114.79 79.7805 114.915 79.8152C115.041 79.85 115.158 79.9098 115.259 79.9912C115.361 80.0725 115.445 80.1736 115.506 80.2884C115.567 80.4031 115.604 80.5291 115.615 80.6586C115.626 80.7881 115.61 80.9185 115.569 81.0417C115.527 81.1649 115.461 81.2785 115.375 81.3755C115.288 81.4724 115.182 81.5508 115.064 81.6057C114.403 81.9496 113.734 82.3179 113.083 82.6899C112.936 82.773 112.769 82.8162 112.599 82.8151ZM187.407 81.1546C187.257 81.1535 187.11 81.1175 186.977 81.0496C186.308 80.6945 185.624 80.3743 184.944 80.0505C184.712 79.9415 184.534 79.7453 184.447 79.5051C184.361 79.2648 184.374 79.0002 184.483 78.7694C184.592 78.5386 184.789 78.3605 185.03 78.2744C185.271 78.1883 185.536 78.2011 185.767 78.3101C186.465 78.6375 187.163 78.9823 187.86 79.3342C188.052 79.4322 188.205 79.5919 188.294 79.7875C188.383 79.9831 188.404 80.2031 188.352 80.4118C188.301 80.6205 188.18 80.8057 188.01 80.9373C187.839 81.069 187.63 81.1394 187.414 81.1371L187.407 81.1546ZM118.709 79.6968C118.49 79.6964 118.278 79.6214 118.108 79.4841C117.939 79.3468 117.821 79.1556 117.775 78.9423C117.73 78.729 117.758 78.5065 117.857 78.3119C117.956 78.1172 118.119 77.9623 118.318 77.8728C119.021 77.5537 119.724 77.2416 120.427 76.9435C120.544 76.8877 120.67 76.8561 120.799 76.8505C120.928 76.8449 121.057 76.8654 121.178 76.9109C121.299 76.9563 121.409 77.0257 121.502 77.1149C121.596 77.2041 121.67 77.3111 121.72 77.4297C121.771 77.5482 121.797 77.6758 121.797 77.8047C121.797 77.9335 121.77 78.061 121.72 78.1795C121.669 78.2979 121.594 78.4048 121.501 78.4938C121.407 78.5827 121.297 78.6519 121.176 78.6971C120.473 78.9882 119.795 79.2935 119.112 79.6058C118.986 79.6636 118.848 79.6946 118.709 79.6968ZM181.141 78.3027C181.021 78.3017 180.902 78.2781 180.791 78.2334C180.093 77.9514 179.395 77.6765 178.672 77.4153C178.554 77.3716 178.446 77.3052 178.354 77.2199C178.262 77.1345 178.187 77.0319 178.135 76.9179C178.083 76.8039 178.053 76.6807 178.049 76.5554C178.044 76.43 178.064 76.305 178.108 76.1874C178.152 76.0698 178.218 75.962 178.304 75.8701C178.389 75.7782 178.492 75.704 178.606 75.6517C178.721 75.5995 178.844 75.5702 178.97 75.5655C179.095 75.5609 179.221 75.581 179.338 75.6246C180.065 75.8928 180.794 76.1751 181.51 76.4641C181.716 76.5473 181.887 76.6997 181.993 76.8951C182.099 77.0905 182.133 77.3166 182.09 77.5345C182.046 77.7524 181.928 77.9483 181.756 78.0886C181.583 78.2288 181.367 78.3045 181.144 78.3027L181.141 78.3027ZM125.066 77.1327C124.84 77.1324 124.622 77.0524 124.45 76.9068C124.277 76.7612 124.162 76.5595 124.125 76.3374C124.087 76.1152 124.13 75.887 124.245 75.6931C124.359 75.4992 124.539 75.3521 124.753 75.2779C125.476 75.0219 126.214 74.773 126.948 74.5345C127.067 74.4956 127.193 74.4805 127.319 74.4902C127.444 74.4998 127.566 74.534 127.678 74.5908C127.79 74.6475 127.89 74.7257 127.972 74.821C128.053 74.9162 128.116 75.0265 128.155 75.1457C128.194 75.2649 128.209 75.3906 128.199 75.5156C128.189 75.6406 128.155 75.7625 128.098 75.8743C128.041 75.9861 127.963 76.0856 127.868 76.1672C127.772 76.2488 127.662 76.3108 127.542 76.3497C126.84 76.5815 126.102 76.8269 125.396 77.0761C125.29 77.1115 125.178 77.1272 125.066 77.1222L125.066 77.1327ZM174.652 76.0221C174.56 76.0203 174.468 76.0066 174.379 75.9814C173.663 75.7622 172.93 75.5498 172.206 75.3515C172.085 75.3184 171.972 75.2618 171.872 75.1849C171.773 75.108 171.69 75.0124 171.628 74.9035C171.502 74.6836 171.47 74.4228 171.537 74.1787C171.604 73.9346 171.765 73.7271 171.986 73.6018C172.206 73.4765 172.467 73.4437 172.712 73.5106C173.456 73.7126 174.204 73.932 174.941 74.1549C175.162 74.2214 175.351 74.3651 175.474 74.5597C175.597 74.7542 175.645 74.9865 175.61 75.2138C175.575 75.441 175.458 75.648 175.282 75.7965C175.107 75.945 174.883 76.0251 174.652 76.0221ZM131.64 75.1086C131.407 75.1079 131.183 75.0225 131.008 74.8685C130.834 74.7144 130.722 74.5022 130.694 74.2717C130.665 74.0412 130.722 73.8082 130.853 73.6164C130.984 73.4247 131.181 73.2873 131.407 73.23C132.155 73.0371 132.913 72.8513 133.66 72.6828C133.783 72.6534 133.91 72.6485 134.035 72.6685C134.16 72.6885 134.279 72.733 134.387 72.7993C134.494 72.8657 134.587 72.9526 134.661 73.0551C134.734 73.1575 134.787 73.2735 134.815 73.3964C134.843 73.5192 134.847 73.6464 134.826 73.7706C134.805 73.8949 134.759 74.0137 134.692 74.1202C134.624 74.2267 134.536 74.3189 134.433 74.3913C134.329 74.4637 134.213 74.5149 134.089 74.5421C133.359 74.7107 132.619 74.8792 131.889 75.0792C131.807 75.0991 131.724 75.109 131.64 75.1086ZM167.995 74.2992C167.93 74.2985 167.865 74.2909 167.802 74.2766C167.068 74.1237 166.32 73.9741 165.582 73.8421C165.457 73.8207 165.338 73.7749 165.232 73.7074C165.125 73.6399 165.033 73.5519 164.961 73.4487C164.888 73.3454 164.837 73.2289 164.81 73.1058C164.783 72.9827 164.781 72.8556 164.804 72.7316C164.826 72.6076 164.873 72.4894 164.942 72.3836C165.01 72.2778 165.099 72.1867 165.203 72.1154C165.307 72.0441 165.425 71.9941 165.548 71.9683C165.672 71.9424 165.799 71.9413 165.923 71.9649C166.682 72.1006 167.448 72.2503 168.2 72.4104C168.433 72.4576 168.641 72.5902 168.782 72.7822C168.922 72.9741 168.986 73.2116 168.96 73.4481C168.935 73.6845 168.821 73.9029 168.643 74.0603C168.464 74.2178 168.233 74.303 167.995 74.2992ZM138.362 73.6799C138.125 73.6736 137.899 73.58 137.727 73.417C137.555 73.254 137.449 73.0332 137.431 72.7972C137.412 72.5612 137.482 72.3268 137.627 72.1391C137.771 71.9514 137.98 71.8239 138.214 71.781C138.971 71.6546 139.743 71.5388 140.507 71.4333C140.633 71.4133 140.761 71.4185 140.885 71.4486C141.008 71.4786 141.124 71.533 141.227 71.6084C141.329 71.6839 141.415 71.7789 141.48 71.888C141.545 71.997 141.587 72.1179 141.605 72.2436C141.623 72.3692 141.615 72.4971 141.582 72.6197C141.55 72.7424 141.493 72.8573 141.415 72.9578C141.338 73.0582 141.241 73.1423 141.13 73.2049C141.02 73.2676 140.898 73.3076 140.772 73.3227C140.025 73.4247 139.271 73.5407 138.531 73.6533C138.476 73.6674 138.419 73.6763 138.362 73.6799ZM161.213 73.1729L161.104 73.172C160.356 73.0818 159.596 72.9986 158.851 72.9294C158.725 72.9195 158.601 72.8847 158.489 72.8269C158.376 72.7691 158.276 72.6896 158.194 72.5929C158.112 72.4961 158.051 72.3842 158.013 72.2635C157.975 72.1428 157.962 72.0158 157.973 71.8899C157.985 71.764 158.022 71.6417 158.081 71.53C158.141 71.4184 158.222 71.3197 158.32 71.2397C158.418 71.1596 158.531 71.0999 158.653 71.0638C158.774 71.0278 158.902 71.0162 159.028 71.0298C159.791 71.0991 160.568 71.1825 161.334 71.2763C161.582 71.2984 161.812 71.4164 161.975 71.6052C162.137 71.794 162.219 72.0387 162.203 72.287C162.188 72.5354 162.075 72.7677 161.89 72.9345C161.705 73.1013 161.462 73.1894 161.213 73.1799L161.213 73.1729ZM145.189 72.8391C144.947 72.8299 144.717 72.7297 144.546 72.5585C144.374 72.3874 144.275 72.1579 144.266 71.9163C144.257 71.6746 144.341 71.4387 144.499 71.2558C144.658 71.0729 144.88 70.9567 145.121 70.9304C145.892 70.8705 146.67 70.8211 147.437 70.7822C147.564 70.7739 147.69 70.7908 147.81 70.832C147.93 70.8731 148.041 70.9376 148.135 71.0217C148.23 71.1059 148.307 71.208 148.362 71.322C148.416 71.4361 148.448 71.5599 148.454 71.6862C148.461 71.8126 148.442 71.9389 148.399 72.0579C148.356 72.1768 148.289 72.2861 148.204 72.3793C148.118 72.4724 148.015 72.5477 147.899 72.6006C147.784 72.6535 147.66 72.6831 147.533 72.6875C146.783 72.7267 146.023 72.7762 145.273 72.8363L145.189 72.8391ZM154.356 72.6365L154.321 72.6362C153.621 72.6094 152.921 72.5965 152.22 72.5906L152.073 72.5894C151.942 72.5962 151.812 72.5762 151.689 72.5307C151.566 72.4852 151.454 72.4151 151.36 72.3248C151.265 72.2345 151.19 72.1258 151.139 72.0055C151.088 71.8852 151.062 71.7557 151.064 71.6251C151.065 71.4945 151.092 71.3655 151.145 71.2461C151.198 71.1266 151.275 71.0192 151.371 70.9305C151.467 70.8418 151.581 70.7736 151.704 70.7302C151.827 70.6867 151.959 70.669 152.089 70.678L152.236 70.6792C152.937 70.6851 153.683 70.6913 154.404 70.7288C154.657 70.7342 154.898 70.8399 155.074 71.0226C155.249 71.2052 155.345 71.45 155.339 71.703C155.334 71.956 155.228 72.1964 155.045 72.3715C154.862 72.5466 154.617 72.642 154.363 72.6366L154.356 72.6365Z" fill="#838BA5"/>
<path d="M293.061 150.715L287.986 150.673L287.947 155.369L293.617 155.417L293.605 156.815L286.251 156.753L286.36 143.736L293.427 143.796L293.416 145.193L288.033 145.148L287.998 149.265L293.073 149.307L293.061 150.715Z" fill="#000929"/>
<path d="M293.614 157.175L285.559 157.107L285.674 143.385L293.442 143.45L293.424 145.546L288.041 145.501L288.012 148.919L293.087 148.961L293.07 151.058L287.995 151.015L287.961 155.017L293.631 155.064L293.614 157.175ZM286.265 156.414L292.919 156.47L292.925 155.771L287.255 155.723L287.3 150.318L292.375 150.36L292.381 149.661L287.306 149.619L287.347 144.807L292.726 144.852L292.732 144.153L286.365 144.1L286.265 156.414Z" fill="#000929"/>
<path d="M148.249 15.3744L148.359 2.34723L150.204 2.36273L154.352 8.98848C155.212 10.3573 155.982 11.781 156.655 13.2503L156.694 13.2332C156.555 11.4847 156.529 9.9049 156.546 7.87815L156.592 2.4164L158.182 2.42976L158.073 15.4569L156.364 15.4425L152.266 8.79622C151.374 7.38973 150.568 5.93124 149.851 4.42859L149.795 4.4456C149.875 6.08876 149.901 7.65457 149.882 9.8211L149.836 15.3877L148.249 15.3744Z" fill="#000929"/>
<path d="M158.402 15.8091L156.15 15.7902L151.949 8.9788C151.258 7.83025 150.664 6.83278 150.188 5.93066C150.224 7.08419 150.231 8.30388 150.218 9.82395L150.169 15.74L147.878 15.7207L147.993 1.99472L150.382 2.01479L154.622 8.80556C155.227 9.77516 155.759 10.6987 156.224 11.5973C156.171 10.3842 156.167 9.18897 156.178 7.8646L156.227 2.06389L158.517 2.08313L158.402 15.8091ZM156.545 15.0946L157.708 15.1044L157.811 2.77613L156.922 2.76865L156.879 7.87048C156.863 9.76794 156.881 11.4036 157.027 13.1941L157.046 13.4319L156.465 13.7101L156.318 13.3838C155.646 11.9315 154.881 10.5243 154.027 9.17099L149.987 2.7104L148.684 2.69946L148.581 15.0277L149.47 15.0352L149.514 9.81803C149.533 7.64102 149.507 6.09268 149.426 4.46349L149.411 4.19777L150.022 3.99672L150.153 4.28089C150.858 5.77343 151.657 7.22042 152.543 8.61337L156.545 15.0946Z" fill="#000929"/>
<path d="M147.257 296.444C148.168 296.997 149.21 297.299 150.276 297.319C152.006 297.333 153.022 296.433 153.033 295.119C153.044 293.9 152.349 293.198 150.604 292.509C148.474 291.736 147.163 290.625 147.178 288.787C147.195 286.756 148.899 285.264 151.442 285.286C152.445 285.259 153.439 285.488 154.329 285.95L153.852 287.315C153.09 286.901 152.238 286.682 151.371 286.676C149.585 286.661 148.91 287.704 148.903 288.609C148.893 289.825 149.682 290.433 151.484 291.143C153.69 292.011 154.809 293.083 154.793 294.998C154.776 297.007 153.266 298.735 150.177 298.709C148.916 298.698 147.539 298.337 146.846 297.849L147.257 296.444Z" fill="#000929"/>
<path d="M150.503 299.061C149.214 299.05 147.764 298.688 146.977 298.14L146.761 297.995L147.412 295.904L147.799 296.144C148.656 296.663 149.635 296.946 150.636 296.965C152.111 296.977 153.031 296.286 153.041 295.112C153.048 294.221 152.703 293.561 150.818 292.829C148.353 291.935 147.156 290.611 147.171 288.779C147.19 286.491 149.088 284.91 151.788 284.932C152.853 284.908 153.906 285.157 154.847 285.657L155.098 285.799L154.38 287.834L154.014 287.631C153.305 287.242 152.51 287.037 151.7 287.035C150.138 287.022 149.592 287.881 149.586 288.622C149.578 289.582 150.151 290.118 151.945 290.829C154.434 291.807 155.492 293.06 155.476 295.01C155.456 296.894 154.145 299.091 150.503 299.061ZM147.59 297.698C148.502 298.13 149.499 298.357 150.509 298.362C153.08 298.383 154.754 297.063 154.772 294.997C154.786 293.338 153.918 292.348 151.684 291.477C149.9 290.763 148.869 290.076 148.882 288.616C148.891 287.508 149.784 286.32 151.703 286.336C152.489 286.341 153.266 286.511 153.982 286.834L154.23 286.137C153.457 285.805 152.623 285.641 151.782 285.656C149.495 285.636 147.887 286.933 147.871 288.81C147.859 290.33 148.876 291.408 151.069 292.202C152.685 292.838 153.754 293.577 153.741 295.142C153.728 296.708 152.508 297.68 150.63 297.664C149.649 297.643 148.686 297.395 147.817 296.941L147.59 297.698Z" fill="#000929"/>
<path d="M4.26125 145.039L5.46457 149.806C5.72893 150.856 5.97301 151.819 6.13999 152.789L6.19602 152.789C6.41761 151.844 6.73776 150.84 7.05791 149.836L8.63196 145.076L10.0678 145.088L11.4749 149.779C11.8157 150.904 12.0772 151.881 12.2828 152.84L12.3423 152.841C12.5271 151.818 12.7695 150.806 13.0683 149.81L14.4456 145.125L16.1371 145.139L13.0291 154.468L11.4742 154.455L10.0758 149.981C9.75385 148.968 9.48427 147.939 9.2681 146.898L9.22607 146.898C8.99468 147.943 8.70184 148.973 8.34906 149.984L6.79528 154.416L5.27184 154.403L2.51367 145.025L4.26125 145.039Z" fill="#000929"/>
<path d="M13.2959 154.405L11.2296 154.388L9.75625 149.668C9.56876 149.055 9.41592 148.487 9.2491 147.916C9.07215 148.551 8.88858 149.14 8.69483 149.691L7.05847 154.363L4.99219 154.346L2.04736 144.256L4.5374 144.277L5.80856 149.306C5.95084 149.881 6.08982 150.431 6.21488 150.97C6.37361 150.419 6.55339 149.865 6.7261 149.318L8.35126 144.309L10.2985 144.326L11.8121 149.262C11.9996 149.876 12.1524 150.44 12.2986 150.968C12.4364 150.4 12.5953 149.839 12.7539 149.298L14.1964 144.359L16.6479 144.379L13.2959 154.405ZM11.7468 153.693L12.7975 153.702L15.672 145.066L14.7299 145.058L13.4247 149.493C13.1284 150.475 12.8861 151.473 12.6992 152.481L12.6512 152.775L12.0138 152.769L11.9565 152.496C11.7541 151.575 11.4995 150.612 11.152 149.46L9.80933 145.017L8.87075 145.009L7.37568 149.54C7.06277 150.516 6.74257 151.526 6.52457 152.461L6.45924 152.733L5.82885 152.728L5.77876 152.437C5.61511 151.489 5.37102 150.526 5.10293 149.503L3.96413 144.978L2.959 144.97L5.50938 153.651L6.56003 153.66L8.03115 149.479C8.37849 148.482 8.66884 147.465 8.9008 146.435L8.95915 146.16L9.56853 146.165L9.62224 146.441C9.84087 147.516 10.1028 148.437 10.4232 149.488L11.7468 153.693Z" fill="#000929"/>
<path d="M255.324 42.6305L260.515 37.572L261.359 38.4283L260.648 42.9374C260.508 43.8622 260.302 44.776 260.033 45.672L260.058 45.6722C260.7 44.9124 261.383 44.1878 262.104 43.5018L264.276 41.3848L265.002 42.1247L259.81 47.1833L259.033 46.3905L259.771 41.8921C259.912 40.9375 260.118 39.9936 260.387 39.0666L260.351 39.0663C259.74 39.7601 259.136 40.3736 258.271 41.2155L256.053 43.3775L255.324 42.6305Z" fill="#000929"/>
<path d="M266.689 49.3414L264.365 46.977L262.494 48.8029L265.084 51.4352L264.523 51.9826L261.158 48.5645L266.352 43.506L269.579 46.7901L269.017 47.3375L266.562 44.8392L264.92 46.4364L267.243 48.8009L266.689 49.3414Z" fill="#000929"/>
<path d="M42.5368 49.4397L37.4527 44.2704L38.3144 43.4319L42.844 44.1409C43.7735 44.2779 44.6918 44.4818 45.5918 44.7511L45.592 44.7267C44.8339 44.0905 44.1101 43.4149 43.4235 42.7025L41.2947 40.5389L42.0398 39.8148L47.1204 44.9841L46.3223 45.7602L41.8069 45.0234C40.8456 44.8836 39.8949 44.6795 38.9611 44.4124L38.9398 44.4471C39.6351 45.0575 40.257 45.6603 41.1009 46.5166L43.2713 48.726L42.5368 49.4397Z" fill="#000929"/>
<path d="M49.4828 42.6591L42.8589 39.0004L43.6923 38.1897L46.9896 40.0975C47.8052 40.5657 48.5997 41.0511 49.1988 41.4405L49.2165 41.4232C48.7552 40.686 48.3326 39.9254 47.9502 39.1446L46.2067 35.7366L47.0295 34.9328L50.3548 36.8303C51.0996 37.2458 51.8229 37.6986 52.5219 38.187L52.5394 38.1871C52.1075 37.4846 51.7144 36.7544 51.2696 35.9224L49.5153 32.5319L50.3205 31.7453L53.6708 38.595L52.848 39.3989L49.4319 37.4586C48.7187 37.0692 48.031 36.6351 47.3729 36.1588L47.3552 36.1761C47.7931 36.8682 48.1894 37.5857 48.542 38.3248L50.3196 41.8623L49.4828 42.6591Z" fill="#000929"/>
<path d="M53.0943 256.083C52.8887 255.432 52.5339 254.838 52.0582 254.348C51.2699 253.545 50.4443 253.426 49.9216 253.939C49.399 254.451 49.4784 255.004 50.0157 256.089C50.7053 257.373 50.8577 258.416 50.1232 259.13C49.3145 259.916 47.9433 259.716 46.7799 258.536C46.3127 258.089 45.9491 257.545 45.7145 256.944L46.4737 256.628C46.6646 257.155 46.9676 257.635 47.362 258.034C48.1781 258.862 48.9109 258.767 49.2676 258.42C49.7514 257.946 49.6268 257.343 49.0793 256.235C48.4077 254.876 48.3175 253.939 49.0803 253.198C49.843 252.456 51.2547 252.437 52.6681 253.871C53.202 254.397 53.6097 255.038 53.8607 255.743L53.0943 256.083Z" fill="#000929"/>
<path d="M48.4436 249.74L44.7701 256.349L43.9644 255.531L45.8797 252.248C46.3489 251.438 46.8389 250.645 47.2327 250.047L47.2151 250.047C46.4736 250.506 45.709 250.926 44.9245 251.307L41.5055 253.047L40.7177 252.191L42.6227 248.887C43.0394 248.144 43.4944 247.424 43.9858 246.728C43.2817 247.156 42.5464 247.548 41.7126 247.988L38.2867 249.721L37.4949 248.917L44.3807 245.582L45.1898 246.403L43.2385 249.804C42.8483 250.514 42.4133 251.197 41.9359 251.852L41.9532 251.869C42.647 251.432 43.3674 251.037 44.1101 250.689L47.6484 248.922L48.4436 249.74Z" fill="#000929"/>
<path d="M254.32 51.6348L246.085 59.6976L247.074 60.6984L255.31 52.6356L254.32 51.6348Z" fill="#13A090"/>
<path d="M60.4817 241.377L52.2464 249.436L53.2362 250.437L61.4716 242.374L60.4817 241.377Z" fill="#13A090"/>
<path d="M243.782 241.148L242.78 242.132L250.878 250.329L251.881 249.348L243.782 241.148Z" fill="#13A090"/>
<path d="M52.1567 49.1641L60.2555 57.3607L61.2584 56.3766L53.1597 48.18L52.1567 49.1641Z" fill="#13A090"/>
<path d="M261.474 249.01C260.814 249.212 260.211 249.566 259.714 250.043C258.905 250.826 258.79 251.647 259.304 252.168C259.818 252.69 260.375 252.61 261.462 252.074C262.753 251.404 263.802 251.238 264.517 251.967C265.309 252.774 265.108 254.139 263.922 255.296C263.472 255.762 262.927 256.125 262.323 256.359L262.003 255.601C262.532 255.413 263.012 255.112 263.412 254.719C264.252 253.912 264.164 253.187 263.816 252.835C263.34 252.352 262.737 252.476 261.622 253.023C260.258 253.693 259.315 253.783 258.568 253.022C257.821 252.26 257.805 250.855 259.246 249.452C259.775 248.923 260.416 248.518 261.123 248.269L261.474 249.01Z" fill="#000929"/>
<path d="M255.317 258.159L257.693 255.845L255.86 253.984L253.215 256.562L252.663 256.002L256.099 252.655L261.179 257.824L257.881 261.036L257.332 260.469L259.84 258.023L258.235 256.388L255.862 258.709L255.317 258.159Z" fill="#000929"/>
<path d="M166.201 149.346C166.206 148.342 166.097 147.341 165.876 146.362L153.915 40.0732L140.181 146.146C139.941 147.121 139.816 148.12 139.805 149.124C139.803 149.358 139.801 149.596 139.82 149.823C139.84 150.05 139.796 150.291 139.794 150.522C139.787 151.525 139.896 152.527 140.119 153.505L152.076 259.794L165.821 153.725C166.058 152.748 166.184 151.748 166.196 150.744C166.198 150.509 166.2 150.272 166.202 150.045C166.204 149.817 166.199 149.58 166.201 149.346ZM152.947 156.199C151.709 156.172 150.508 155.779 149.493 155.072C148.478 154.365 147.696 153.374 147.244 152.225C146.792 151.075 146.691 149.818 146.953 148.611C147.216 147.404 147.83 146.301 148.719 145.442C149.607 144.582 150.731 144.004 151.948 143.78C153.165 143.556 154.421 143.696 155.559 144.183C156.697 144.669 157.665 145.481 158.341 146.515C159.018 147.549 159.373 148.759 159.363 149.994C159.326 151.663 158.633 153.25 157.432 154.411C156.231 155.573 154.619 156.215 152.947 156.199Z" fill="#1A1A1A"/>
<path d="M150.637 163.442C151.645 163.448 152.651 163.339 153.635 163.117L260.408 151.224L153.849 137.538C152.87 137.3 151.866 137.174 150.858 137.164C150.62 137.162 150.382 137.16 150.157 137.179C149.933 137.198 149.685 137.154 149.457 137.152C148.448 137.145 147.441 137.254 146.456 137.476L39.6694 149.373L146.227 163.059C147.208 163.297 148.213 163.423 149.222 163.433C149.457 163.435 149.695 163.437 149.923 163.418C150.151 163.399 150.406 163.44 150.637 163.442ZM143.743 150.247C143.763 149.005 144.15 147.797 144.857 146.774C145.564 145.752 146.558 144.961 147.715 144.502C148.871 144.042 150.138 143.935 151.356 144.193C152.574 144.451 153.688 145.063 154.557 145.952C155.427 146.841 156.014 147.966 156.243 149.187C156.472 150.408 156.334 151.669 155.846 152.812C155.358 153.955 154.542 154.928 153.5 155.608C152.459 156.289 151.239 156.646 149.994 156.636C148.32 156.606 146.725 155.918 145.556 154.722C144.387 153.526 143.738 151.918 143.75 150.247L143.743 150.247Z" fill="#1A1A1A"/>
<path d="M151.288 154.763C150.452 154.757 149.626 154.587 148.857 154.263C148.087 153.939 147.389 153.466 146.802 152.873C146.215 152.279 145.752 151.576 145.438 150.803C145.123 150.031 144.965 149.204 144.971 148.371L40.8899 147.496L147.448 161.185C149.378 161.653 151.388 161.68 153.33 161.264C155.271 160.848 157.094 160 158.661 158.783C160.228 157.566 161.5 156.012 162.381 154.236C163.262 152.461 163.73 150.51 163.749 148.528L157.708 148.478C157.7 149.311 157.528 150.134 157.201 150.901C156.874 151.668 156.399 152.363 155.803 152.947C155.207 153.531 154.501 153.991 153.726 154.303C152.952 154.615 152.123 154.771 151.288 154.763Z" fill="#038072"/>
<path d="M150.664 135.282C149.655 135.277 148.65 135.386 147.666 135.606L40.8899 147.496L144.971 148.371C145.024 146.711 145.725 145.139 146.925 143.989C148.125 142.839 149.728 142.203 151.392 142.217C153.055 142.231 154.648 142.894 155.828 144.063C157.008 145.233 157.683 146.818 157.708 148.478L163.749 148.528C163.774 145.04 162.409 141.686 159.955 139.202C157.501 136.718 154.159 135.308 150.664 135.282Z" fill="#13A090"/>
<path d="M151.149 142.083C151.985 142.089 152.81 142.259 153.58 142.584C154.349 142.909 155.047 143.381 155.633 143.975C156.219 144.568 156.683 145.271 156.997 146.043C157.311 146.816 157.469 147.642 157.463 148.475L261.551 149.35L154.993 135.664C153.063 135.197 151.053 135.17 149.112 135.586C147.171 136.001 145.348 136.849 143.781 138.065C142.214 139.282 140.943 140.836 140.061 142.611C139.18 144.386 138.712 146.337 138.691 148.318L144.733 148.369C144.75 146.686 145.435 145.08 146.638 143.901C147.841 142.723 149.463 142.069 151.149 142.083Z" fill="#13A090"/>
<path d="M151.774 161.568C152.782 161.574 153.788 161.465 154.771 161.243L261.551 149.35L157.463 148.476C157.41 150.135 156.709 151.707 155.509 152.857C154.309 154.007 152.706 154.643 151.042 154.629C149.378 154.615 147.786 153.953 146.606 152.783C145.425 151.613 144.751 150.028 144.726 148.369L138.684 148.318C138.672 150.045 139 151.758 139.651 153.359C140.302 154.96 141.263 156.418 142.478 157.648C143.694 158.878 145.14 159.858 146.735 160.53C148.33 161.203 150.042 161.555 151.774 161.568Z" fill="#038072"/>
<path d="M157.486 148.699C157.469 150.382 156.783 151.989 155.579 153.167C154.375 154.345 152.752 154.997 151.066 154.981L150.195 258.587L163.937 152.517C164.406 150.592 164.432 148.585 164.014 146.648C163.595 144.71 162.742 142.893 161.518 141.331C160.295 139.77 158.733 138.505 156.95 137.632C155.167 136.759 153.209 136.3 151.223 136.29L151.172 142.304C152.008 142.31 152.834 142.48 153.603 142.805C154.373 143.129 155.071 143.602 155.657 144.196C156.243 144.79 156.707 145.494 157.02 146.266C157.334 147.039 157.492 147.866 157.486 148.699Z" fill="#038072"/>
<path d="M137.916 149.318C137.91 150.321 138.019 151.323 138.241 152.301L150.202 258.59L151.073 154.981C149.388 154.967 147.777 154.286 146.596 153.087C145.414 151.888 144.759 150.27 144.773 148.589C144.787 146.908 145.47 145.301 146.671 144.122C147.873 142.944 149.494 142.289 151.179 142.304L151.23 136.29C149.498 136.272 147.78 136.596 146.173 137.241C144.567 137.887 143.104 138.842 141.867 140.051C140.631 141.261 139.646 142.702 138.968 144.292C138.29 145.882 137.932 147.59 137.916 149.318Z" fill="#13A090"/>
<path d="M144.746 148.833C144.754 148 144.927 147.176 145.254 146.409C145.581 145.642 146.056 144.946 146.653 144.363C147.25 143.779 147.955 143.318 148.731 143.007C149.506 142.696 150.335 142.54 151.17 142.548L152.04 38.9426L138.302 145.012C138.065 145.989 137.939 146.989 137.927 147.993C137.903 151.481 139.267 154.836 141.721 157.32C144.175 159.804 147.517 161.214 151.013 161.24L151.064 155.226C150.228 155.22 149.402 155.05 148.632 154.726C147.862 154.402 147.164 153.929 146.578 153.336C145.991 152.742 145.527 152.039 145.213 151.266C144.899 150.494 144.74 149.667 144.746 148.833Z" fill="#E09326"/>
<path d="M164.319 148.208C164.326 147.204 164.217 146.203 163.994 145.224L152.04 38.9391L151.17 142.548C152.004 142.555 152.829 142.726 153.597 143.051C154.365 143.376 155.061 143.849 155.646 144.442C156.231 145.036 156.694 145.739 157.006 146.511C157.319 147.282 157.477 148.108 157.47 148.94C157.463 149.773 157.291 150.596 156.966 151.362C156.64 152.128 156.166 152.823 155.571 153.407C154.976 153.991 154.272 154.452 153.499 154.764C152.725 155.076 151.898 155.233 151.063 155.226L151.013 161.24C152.744 161.256 154.462 160.932 156.068 160.286C157.673 159.64 159.136 158.684 160.372 157.474C161.607 156.264 162.592 154.823 163.269 153.233C163.947 151.643 164.304 149.936 164.319 148.208Z" fill="#D28414"/>
<path d="M158.509 148.673C158.5 150.133 158.058 151.558 157.238 152.767C156.418 153.976 155.256 154.915 153.901 155.465C152.546 156.015 151.057 156.152 149.624 155.857C148.191 155.562 146.877 154.85 145.85 153.81C144.823 152.77 144.128 151.45 143.853 150.016C143.579 148.582 143.737 147.098 144.308 145.754C144.878 144.41 145.836 143.264 147.06 142.464C148.283 141.663 149.717 141.242 151.181 141.255C153.138 141.27 155.01 142.059 156.384 143.45C157.758 144.841 158.522 146.72 158.509 148.673Z" fill="#CFD1D2"/>
<path d="M158.092 148.669C158.084 150.047 157.666 151.391 156.892 152.532C156.118 153.673 155.022 154.558 153.742 155.077C152.463 155.596 151.059 155.724 149.706 155.446C148.354 155.168 147.115 154.495 146.146 153.514C145.177 152.533 144.521 151.286 144.262 149.933C144.004 148.58 144.153 147.18 144.692 145.912C145.231 144.644 146.134 143.563 147.289 142.808C148.443 142.052 149.797 141.655 151.177 141.668C152.092 141.674 152.997 141.86 153.84 142.215C154.682 142.571 155.447 143.088 156.089 143.739C156.731 144.389 157.238 145.159 157.582 146.005C157.926 146.851 158.099 147.757 158.092 148.669Z" fill="#919395"/>
<path d="M151.083 152.535C153.26 152.553 155.041 150.811 155.059 148.644C155.077 146.477 153.326 144.705 151.149 144.687C148.971 144.668 147.19 146.41 147.172 148.578C147.154 150.745 148.905 152.517 151.083 152.535Z" fill="#CFD1D2"/>
<path d="M151.087 152.021C152.978 152.037 154.525 150.523 154.541 148.64C154.556 146.756 153.036 145.216 151.144 145.2C149.252 145.184 147.706 146.699 147.69 148.582C147.675 150.466 149.195 152.006 151.087 152.021Z" fill="#A5A6A9"/>
<path d="M153.14 148.628C153.138 149.028 153.017 149.418 152.792 149.749C152.568 150.081 152.25 150.338 151.878 150.489C151.507 150.639 151.099 150.677 150.707 150.596C150.314 150.515 149.955 150.32 149.673 150.035C149.392 149.75 149.202 149.389 149.127 148.996C149.052 148.603 149.095 148.197 149.252 147.828C149.409 147.46 149.671 147.147 150.007 146.928C150.342 146.709 150.735 146.594 151.136 146.598C151.671 146.603 152.183 146.819 152.559 147.199C152.934 147.58 153.143 148.094 153.14 148.628Z" fill="#13A090"/>
<path d="M153.998 148.635C153.995 149.204 153.823 149.76 153.503 150.232C153.184 150.704 152.731 151.07 152.203 151.285C151.674 151.5 151.094 151.553 150.535 151.438C149.976 151.324 149.463 151.046 149.063 150.64C148.662 150.235 148.391 149.72 148.284 149.16C148.177 148.601 148.239 148.023 148.462 147.498C148.685 146.974 149.058 146.528 149.536 146.216C150.013 145.904 150.572 145.74 151.143 145.745C151.905 145.752 152.634 146.06 153.169 146.601C153.704 147.143 154.002 147.874 153.998 148.635Z" fill="#1A1A1A"/>
</g>
<defs>
<clipPath id="clip0_111_1828">
<rect width="292" height="297.034" fill="white" transform="translate(3.25269 0.778748) rotate(0.481328)"/>
</clipPath>
</defs>
</svg>
