<svg width="74" height="138" viewBox="0 0 74 138" fill="none" xmlns="http://www.w3.org/2000/svg">
<g filter="url(#filter0_d_2113_341)">
<path d="M45.0463 110.643C44.7571 109.861 44.6252 109.029 44.658 108.196C44.6909 107.363 44.8879 106.544 45.2377 105.786C45.5876 105.028 46.0835 104.347 46.6971 103.78C47.3107 103.213 48.0299 102.773 48.8137 102.483L12.7695 5.34578L37.6645 109.364C37.7901 110.361 38.0282 111.34 38.3743 112.283C39.5921 115.552 42.061 118.202 45.2381 119.65C48.4153 121.099 52.0405 121.227 55.3165 120.008L53.2243 114.369C52.4414 114.661 51.6088 114.797 50.7741 114.767C49.9394 114.738 49.1188 114.545 48.3593 114.199C47.5999 113.853 46.9164 113.36 46.3479 112.75C45.7795 112.14 45.3371 111.424 45.0463 110.643Z" fill="#E09326"/>
<path d="M63.1166 103.095C62.7658 102.155 62.3076 101.258 61.7512 100.422L12.7683 5.34256L48.8137 102.483C49.5959 102.193 50.4275 102.059 51.261 102.09C52.0944 102.12 52.9135 102.314 53.6714 102.661C54.4292 103.008 55.1111 103.5 55.678 104.11C56.2449 104.72 56.6857 105.436 56.9753 106.216C57.2649 106.997 57.3976 107.827 57.3658 108.659C57.334 109.491 57.1384 110.309 56.7901 111.066C56.4418 111.823 55.9476 112.504 55.3358 113.071C54.7239 113.638 54.0065 114.079 53.2243 114.369L55.3165 120.008C56.9404 119.407 58.4304 118.493 59.7013 117.318C60.9722 116.143 61.9992 114.73 62.7235 113.159C63.4478 111.589 63.8554 109.892 63.9228 108.165C63.9903 106.438 63.7163 104.715 63.1166 103.095Z" fill="#D28414"/>
</g>
<defs>
<filter id="filter0_d_2113_341" x="2.76831" y="2.34256" width="71.1646" height="135.495" filterUnits="userSpaceOnUse" color-interpolation-filters="sRGB">
<feFlood flood-opacity="0" result="BackgroundImageFix"/>
<feColorMatrix in="SourceAlpha" type="matrix" values="0 0 0 0 0 0 0 0 0 0 0 0 0 0 0 0 0 0 127 0" result="hardAlpha"/>
<feOffset dy="7"/>
<feGaussianBlur stdDeviation="5"/>
<feComposite in2="hardAlpha" operator="out"/>
<feColorMatrix type="matrix" values="0 0 0 0 0 0 0 0 0 0 0 0 0 0 0 0 0 0 0.6 0"/>
<feBlend mode="normal" in2="BackgroundImageFix" result="effect1_dropShadow_2113_341"/>
<feBlend mode="normal" in="SourceGraphic" in2="effect1_dropShadow_2113_341" result="shape"/>
</filter>
</defs>
</svg>
